<?xml version="1.0" encoding="utf-8"?>
<!-- Generator: Adobe Illustrator 23.0.1, SVG Export Plug-In . SVG Version: 6.00 Build 0)  -->
<svg version="1.1"
	 id="Layer_1" xmlns:cc="http://creativecommons.org/ns#" xmlns:dc="http://purl.org/dc/elements/1.1/" xmlns:inkscape="http://www.inkscape.org/namespaces/inkscape" xmlns:rdf="http://www.w3.org/1999/02/22-rdf-syntax-ns#" xmlns:sodipodi="http://sodipodi.sourceforge.net/DTD/sodipodi-0.dtd" xmlns:svg="http://www.w3.org/2000/svg"
	 xmlns="http://www.w3.org/2000/svg" xmlns:xlink="http://www.w3.org/1999/xlink" x="0px" y="0px" viewBox="0 0 68.8 94.9"
	 style="enable-background:new 0 0 68.8 94.9;" xml:space="preserve">
<style type="text/css">
	.st0{opacity:0.2;fill:#FFFFFF;}
</style>
<path class="st0" d="M9.8,8.8C9.3,8.8,9,9.2,9,9.6c0,0.5,0.4,0.8,0.8,0.8s0.8-0.4,0.8-0.8S10.2,8.8,9.8,8.8z M9.8,12
	C9.3,12,9,12.3,9,12.8s0.4,0.8,0.8,0.8s0.8-0.4,0.8-0.8S10.2,12,9.8,12z M13,12c-0.4,0-0.8,0.3-0.8,0.8s0.4,0.8,0.8,0.8
	c0.5,0,0.9-0.4,0.9-0.8S13.4,12,13,12z M16.2,12c-0.5,0-0.8,0.3-0.8,0.8s0.4,0.8,0.8,0.8c0.5,0,0.8-0.4,0.8-0.8S16.7,12,16.2,12z
	 M19.5,12c-0.5,0-0.8,0.3-0.8,0.8s0.3,0.8,0.8,0.8s0.8-0.3,0.8-0.8C20.3,12.4,19.9,12,19.5,12z M19.5,15.2c-0.5,0-0.8,0.3-0.8,0.8
	s0.3,0.8,0.8,0.8s0.8-0.4,0.8-0.8S19.9,15.2,19.5,15.2z M6.5,15.3c-0.5,0-0.8,0.3-0.8,0.8s0.3,0.8,0.8,0.8s0.8-0.4,0.8-0.8
	S7,15.3,6.5,15.3z M9.8,15.3c-0.5,0-0.8,0.3-0.8,0.8s0.4,0.8,0.8,0.8s0.8-0.4,0.8-0.8S10.2,15.3,9.8,15.3z M13,15.3
	c-0.4,0-0.8,0.3-0.8,0.8s0.4,0.8,0.8,0.8c0.5,0,0.9-0.4,0.9-0.8S13.4,15.3,13,15.3z M16.2,15.3c-0.5,0-0.8,0.3-0.8,0.8
	s0.4,0.8,0.8,0.8c0.5,0,0.8-0.4,0.8-0.8S16.7,15.3,16.2,15.3z M22.7,15.3c-0.5,0-0.8,0.3-0.8,0.8s0.4,0.8,0.8,0.8s0.8-0.4,0.8-0.8
	S23.1,15.3,22.7,15.3z M25.9,15.3c-0.4,0-0.8,0.3-0.8,0.8s0.4,0.8,0.8,0.8c0.5,0,0.8-0.4,0.8-0.8S26.4,15.3,25.9,15.3z M6.5,18.5
	c-0.5,0-0.8,0.4-0.8,0.8c0,0.5,0.3,0.9,0.8,0.9s0.8-0.4,0.8-0.9C7.3,18.9,7,18.5,6.5,18.5z M9.8,18.5c-0.5,0-0.8,0.4-0.8,0.8
	c0,0.5,0.4,0.9,0.8,0.9s0.8-0.4,0.8-0.9C10.6,18.9,10.2,18.5,9.8,18.5z M13,18.5c-0.4,0-0.8,0.4-0.8,0.8c0,0.5,0.4,0.9,0.8,0.9
	c0.5,0,0.9-0.4,0.9-0.9C13.8,18.9,13.4,18.5,13,18.5z M16.2,18.5c-0.5,0-0.8,0.4-0.8,0.8c0,0.5,0.4,0.9,0.8,0.9
	c0.5,0,0.8-0.4,0.8-0.9C17,18.9,16.7,18.5,16.2,18.5z M19.5,18.5c-0.5,0-0.8,0.4-0.8,0.8s0.3,0.8,0.8,0.8s0.8-0.4,0.8-0.8
	C20.3,18.8,19.9,18.5,19.5,18.5z M22.7,18.5c-0.5,0-0.8,0.4-0.8,0.8c0,0.5,0.4,0.8,0.8,0.8s0.8-0.4,0.8-0.8S23.1,18.5,22.7,18.5z
	 M25.9,18.5c-0.4,0-0.8,0.4-0.8,0.8c0,0.5,0.4,0.8,0.8,0.8c0.5,0,0.8-0.4,0.8-0.8S26.4,18.5,25.9,18.5z M6.5,21.7
	c-0.5,0-0.8,0.4-0.8,0.8s0.3,0.8,0.8,0.8s0.8-0.3,0.8-0.8S7,21.7,6.5,21.7z M9.8,21.7c-0.5,0-0.8,0.4-0.8,0.8s0.4,0.8,0.8,0.8
	s0.8-0.3,0.8-0.8S10.2,21.7,9.8,21.7z M13,21.7c-0.4,0-0.8,0.4-0.8,0.8s0.4,0.8,0.8,0.8c0.5,0,0.9-0.3,0.9-0.8S13.4,21.7,13,21.7z
	 M16.2,21.7c-0.5,0-0.8,0.4-0.8,0.8s0.4,0.8,0.8,0.8c0.5,0,0.8-0.3,0.8-0.8S16.7,21.7,16.2,21.7z M19.5,21.7c-0.5,0-0.8,0.4-0.8,0.8
	c0,0.5,0.3,0.8,0.8,0.8s0.8-0.4,0.8-0.8S19.9,21.7,19.5,21.7z M22.7,21.7c-0.5,0-0.8,0.3-0.8,0.8s0.4,0.8,0.8,0.8s0.8-0.3,0.8-0.8
	S23.1,21.7,22.7,21.7z M25.9,21.7c-0.4,0-0.8,0.3-0.8,0.8s0.4,0.8,0.8,0.8c0.5,0,0.8-0.3,0.8-0.8S26.4,21.7,25.9,21.7z M13,25
	c-0.4,0-0.8,0.3-0.8,0.8s0.4,0.8,0.8,0.8c0.5,0,0.9-0.3,0.9-0.8S13.4,25,13,25z M16.2,25c-0.5,0-0.8,0.3-0.8,0.8s0.4,0.8,0.8,0.8
	c0.5,0,0.8-0.3,0.8-0.8S16.7,25,16.2,25z M19.5,25c-0.5,0-0.8,0.3-0.8,0.8s0.3,0.8,0.8,0.8s0.8-0.3,0.8-0.8S19.9,25,19.5,25z
	 M22.7,25c-0.5,0-0.8,0.3-0.8,0.8s0.4,0.8,0.8,0.8s0.8-0.3,0.8-0.8S23.1,25,22.7,25z M25.9,25c-0.4,0-0.8,0.3-0.8,0.8
	s0.4,0.8,0.8,0.8c0.5,0,0.8-0.3,0.8-0.8S26.4,25,25.9,25z M9.8,28.2C9.3,28.2,9,28.6,9,29s0.4,0.8,0.8,0.8s0.8-0.4,0.8-0.8
	S10.2,28.2,9.8,28.2z M13,28.2c-0.4,0-0.8,0.4-0.8,0.8s0.4,0.8,0.8,0.8c0.5,0,0.9-0.4,0.9-0.8C13.8,28.6,13.4,28.2,13,28.2z
	 M16.2,28.2c-0.5,0-0.8,0.4-0.8,0.8s0.4,0.8,0.8,0.8c0.5,0,0.8-0.4,0.8-0.8S16.7,28.2,16.2,28.2z M19.5,28.2c-0.5,0-0.8,0.3-0.8,0.8
	c0,0.4,0.3,0.8,0.8,0.8s0.8-0.4,0.8-0.8C20.3,28.5,19.9,28.2,19.5,28.2z M22.7,28.2c-0.5,0-0.8,0.4-0.8,0.8s0.4,0.8,0.8,0.8
	s0.8-0.4,0.8-0.8S23.1,28.2,22.7,28.2z M25.9,28.2c-0.4,0-0.8,0.4-0.8,0.8s0.4,0.8,0.8,0.8c0.5,0,0.8-0.4,0.8-0.8
	S26.4,28.2,25.9,28.2z M29.2,28.2c-0.5,0-0.8,0.4-0.8,0.8s0.3,0.8,0.8,0.8S30,29.4,30,29S29.6,28.2,29.2,28.2z M32.4,28.2
	c-0.5,0-0.8,0.4-0.8,0.8s0.4,0.8,0.8,0.8s0.8-0.4,0.8-0.8S32.8,28.2,32.4,28.2z M35.6,28.2c-0.5,0-0.8,0.4-0.8,0.8s0.4,0.8,0.8,0.8
	s0.8-0.4,0.8-0.8S36.1,28.2,35.6,28.2z M38.8,28.2c-0.4,0-0.8,0.4-0.8,0.8s0.4,0.8,0.8,0.8c0.5,0,0.8-0.4,0.8-0.8
	C39.7,28.6,39.3,28.2,38.8,28.2z M42.1,28.2c-0.5,0-0.8,0.4-0.8,0.8s0.4,0.8,0.8,0.8s0.8-0.4,0.8-0.8S42.6,28.2,42.1,28.2z
	 M45.3,28.2c-0.5,0-0.8,0.4-0.8,0.8s0.4,0.8,0.8,0.8s0.8-0.4,0.8-0.8S45.8,28.2,45.3,28.2z M48.5,28.2c-0.4,0-0.8,0.4-0.8,0.8
	s0.4,0.8,0.8,0.8c0.5,0,0.8-0.4,0.8-0.8C49.4,28.6,49,28.2,48.5,28.2z M51.8,28.2c-0.4,0-0.8,0.4-0.8,0.8s0.4,0.8,0.8,0.8
	c0.5,0,0.8-0.4,0.8-0.8S52.2,28.2,51.8,28.2z M55,28.2c-0.5,0-0.8,0.4-0.8,0.8s0.4,0.8,0.8,0.8s0.8-0.4,0.8-0.8S55.5,28.2,55,28.2z
	 M58.3,28.2c-0.5,0-0.8,0.3-0.8,0.8c0,0.4,0.4,0.8,0.8,0.8s0.8-0.4,0.8-0.8C59,28.5,58.7,28.2,58.3,28.2z M19.5,31.4
	c-0.5,0-0.8,0.4-0.8,0.8c0,0.5,0.3,0.8,0.8,0.8s0.8-0.4,0.8-0.8C20.3,31.8,19.9,31.4,19.5,31.4z M58.3,31.4c-0.5,0-0.8,0.4-0.8,0.8
	c0,0.5,0.4,0.8,0.8,0.8s0.8-0.4,0.8-0.8C59,31.8,58.7,31.4,58.3,31.4z M61.5,31.4c-0.4,0-0.8,0.4-0.8,0.8c0,0.5,0.4,0.8,0.8,0.8
	c0.5,0,0.8-0.4,0.8-0.8C62.3,31.8,61.9,31.4,61.5,31.4z M6.5,31.5c-0.5,0-0.8,0.4-0.8,0.8c0,0.5,0.3,0.8,0.8,0.8s0.8-0.3,0.8-0.8
	S7,31.5,6.5,31.5z M9.8,31.5c-0.5,0-0.8,0.4-0.8,0.8c0,0.5,0.4,0.8,0.8,0.8s0.8-0.3,0.8-0.8S10.2,31.5,9.8,31.5z M13,31.5
	c-0.4,0-0.8,0.4-0.8,0.8c0,0.5,0.4,0.8,0.8,0.8c0.5,0,0.9-0.3,0.9-0.8C13.8,31.8,13.4,31.5,13,31.5z M16.2,31.5
	c-0.5,0-0.8,0.4-0.8,0.8c0,0.5,0.4,0.8,0.8,0.8c0.5,0,0.8-0.3,0.8-0.8S16.7,31.5,16.2,31.5z M22.7,31.5c-0.5,0-0.8,0.4-0.8,0.8
	c0,0.5,0.4,0.8,0.8,0.8s0.8-0.4,0.8-0.8C23.5,31.8,23.1,31.5,22.7,31.5z M25.9,31.5c-0.4,0-0.8,0.4-0.8,0.8c0,0.5,0.4,0.8,0.8,0.8
	c0.5,0,0.8-0.4,0.8-0.8C26.7,31.8,26.4,31.5,25.9,31.5z M29.2,31.5c-0.5,0-0.8,0.4-0.8,0.8c0,0.5,0.3,0.8,0.8,0.8s0.8-0.4,0.8-0.8
	C30,31.8,29.6,31.5,29.2,31.5z M32.4,31.5c-0.5,0-0.8,0.4-0.8,0.8c0,0.5,0.4,0.8,0.8,0.8s0.8-0.4,0.8-0.8
	C33.2,31.8,32.8,31.5,32.4,31.5z M35.6,31.5c-0.5,0-0.8,0.4-0.8,0.8c0,0.5,0.4,0.8,0.8,0.8s0.8-0.4,0.8-0.8
	C36.4,31.8,36.1,31.5,35.6,31.5z M38.8,31.5c-0.4,0-0.8,0.4-0.8,0.8c0,0.5,0.4,0.8,0.8,0.8c0.5,0,0.8-0.4,0.8-0.8
	C39.7,31.8,39.3,31.5,38.8,31.5z M42.1,31.5c-0.5,0-0.8,0.4-0.8,0.8c0,0.5,0.4,0.8,0.8,0.8s0.8-0.4,0.8-0.8
	C42.9,31.8,42.6,31.5,42.1,31.5z M45.3,31.5c-0.5,0-0.8,0.4-0.8,0.8c0,0.5,0.4,0.8,0.8,0.8s0.8-0.4,0.8-0.8
	C46.1,31.8,45.8,31.5,45.3,31.5z M48.5,31.5c-0.4,0-0.8,0.4-0.8,0.8c0,0.5,0.4,0.8,0.8,0.8c0.5,0,0.8-0.4,0.8-0.8
	C49.4,31.8,49,31.5,48.5,31.5z M51.8,31.5c-0.4,0-0.8,0.4-0.8,0.8c0,0.5,0.4,0.8,0.8,0.8c0.5,0,0.8-0.4,0.8-0.8
	C52.6,31.8,52.2,31.5,51.8,31.5z M55,31.5c-0.5,0-0.8,0.4-0.8,0.8c0,0.5,0.4,0.8,0.8,0.8s0.8-0.4,0.8-0.8
	C55.8,31.8,55.5,31.5,55,31.5z M3.3,34.6c-0.5,0-0.8,0.4-0.8,0.8s0.3,0.8,0.8,0.8s0.8-0.3,0.8-0.8S3.8,34.6,3.3,34.6z M6.5,34.6
	c-0.5,0-0.8,0.4-0.8,0.8s0.3,0.8,0.8,0.8s0.8-0.3,0.8-0.8S7,34.6,6.5,34.6z M9.8,34.6C9.3,34.6,9,35,9,35.4s0.4,0.8,0.8,0.8
	s0.8-0.3,0.8-0.8S10.2,34.6,9.8,34.6z M13,34.6c-0.4,0-0.8,0.4-0.8,0.8s0.4,0.8,0.8,0.8c0.5,0,0.9-0.3,0.9-0.8S13.4,34.6,13,34.6z
	 M16.2,34.6c-0.5,0-0.8,0.4-0.8,0.8s0.4,0.8,0.8,0.8c0.5,0,0.8-0.3,0.8-0.8S16.7,34.6,16.2,34.6z M19.5,34.6c-0.5,0-0.8,0.4-0.8,0.8
	c0,0.5,0.3,0.8,0.8,0.8s0.8-0.3,0.8-0.8C20.3,35,19.9,34.6,19.5,34.6z M22.7,34.6c-0.5,0-0.8,0.4-0.8,0.8s0.4,0.8,0.8,0.8
	s0.8-0.3,0.8-0.8S23.1,34.6,22.7,34.6z M25.9,34.6c-0.4,0-0.8,0.4-0.8,0.8s0.4,0.8,0.8,0.8c0.5,0,0.8-0.3,0.8-0.8
	S26.4,34.6,25.9,34.6z M29.2,34.6c-0.5,0-0.8,0.4-0.8,0.8s0.3,0.8,0.8,0.8s0.8-0.3,0.8-0.8S29.6,34.6,29.2,34.6z M32.4,34.6
	c-0.5,0-0.8,0.4-0.8,0.8s0.4,0.8,0.8,0.8s0.8-0.3,0.8-0.8S32.8,34.6,32.4,34.6z M35.6,34.6c-0.5,0-0.8,0.4-0.8,0.8s0.4,0.8,0.8,0.8
	s0.8-0.3,0.8-0.8S36.1,34.6,35.6,34.6z M38.8,34.6c-0.4,0-0.8,0.4-0.8,0.8s0.4,0.8,0.8,0.8c0.5,0,0.8-0.3,0.8-0.8
	S39.3,34.6,38.8,34.6z M42.1,34.6c-0.5,0-0.8,0.4-0.8,0.8s0.4,0.8,0.8,0.8s0.8-0.3,0.8-0.8S42.6,34.6,42.1,34.6z M45.3,34.6
	c-0.5,0-0.8,0.4-0.8,0.8s0.4,0.8,0.8,0.8s0.8-0.3,0.8-0.8S45.8,34.6,45.3,34.6z M48.5,34.6c-0.4,0-0.8,0.4-0.8,0.8s0.4,0.8,0.8,0.8
	c0.5,0,0.8-0.3,0.8-0.8S49,34.6,48.5,34.6z M51.8,34.6c-0.4,0-0.8,0.4-0.8,0.8s0.4,0.8,0.8,0.8c0.5,0,0.8-0.3,0.8-0.8
	S52.2,34.6,51.8,34.6z M55,34.6c-0.5,0-0.8,0.4-0.8,0.8s0.4,0.8,0.8,0.8s0.8-0.3,0.8-0.8S55.5,34.6,55,34.6z M58.3,34.6
	c-0.5,0-0.8,0.4-0.8,0.8c0,0.5,0.4,0.8,0.8,0.8s0.8-0.3,0.8-0.8C59,35,58.7,34.6,58.3,34.6z M6.5,37.9c-0.5,0-0.8,0.4-0.8,0.8
	s0.3,0.8,0.8,0.8s0.8-0.3,0.8-0.8S7,37.9,6.5,37.9z M9.8,37.9c-0.5,0-0.8,0.4-0.8,0.8s0.4,0.8,0.8,0.8s0.8-0.3,0.8-0.8
	S10.2,37.9,9.8,37.9z M13,37.9c-0.4,0-0.8,0.4-0.8,0.8s0.4,0.8,0.8,0.8c0.5,0,0.9-0.3,0.9-0.8S13.4,37.9,13,37.9z M16.2,37.9
	c-0.5,0-0.8,0.4-0.8,0.8s0.4,0.8,0.8,0.8c0.5,0,0.8-0.3,0.8-0.8S16.7,37.9,16.2,37.9z M19.5,37.9c-0.5,0-0.8,0.4-0.8,0.8
	s0.3,0.8,0.8,0.8s0.8-0.3,0.8-0.8S19.9,37.9,19.5,37.9z M22.7,37.9c-0.5,0-0.8,0.3-0.8,0.8s0.4,0.8,0.8,0.8s0.8-0.3,0.8-0.8
	S23.1,37.9,22.7,37.9z M25.9,37.9c-0.4,0-0.8,0.3-0.8,0.8s0.4,0.8,0.8,0.8c0.5,0,0.8-0.3,0.8-0.8S26.4,37.9,25.9,37.9z M29.2,37.9
	c-0.5,0-0.8,0.3-0.8,0.8s0.3,0.8,0.8,0.8s0.8-0.3,0.8-0.8S29.6,37.9,29.2,37.9z M32.4,37.9c-0.5,0-0.8,0.3-0.8,0.8s0.4,0.8,0.8,0.8
	s0.8-0.3,0.8-0.8S32.8,37.9,32.4,37.9z M35.6,37.9c-0.5,0-0.8,0.3-0.8,0.8s0.4,0.8,0.8,0.8s0.8-0.3,0.8-0.8S36.1,37.9,35.6,37.9z
	 M38.8,37.9c-0.4,0-0.8,0.3-0.8,0.8s0.4,0.8,0.8,0.8c0.5,0,0.8-0.3,0.8-0.8S39.3,37.9,38.8,37.9z M42.1,37.9c-0.5,0-0.8,0.3-0.8,0.8
	s0.4,0.8,0.8,0.8s0.8-0.3,0.8-0.8S42.6,37.9,42.1,37.9z M45.3,37.9c-0.5,0-0.8,0.3-0.8,0.8s0.4,0.8,0.8,0.8s0.8-0.3,0.8-0.8
	S45.8,37.9,45.3,37.9z M48.5,37.9c-0.4,0-0.8,0.3-0.8,0.8s0.4,0.8,0.8,0.8c0.5,0,0.8-0.3,0.8-0.8S49,37.9,48.5,37.9z M51.8,37.9
	c-0.4,0-0.8,0.3-0.8,0.8s0.4,0.8,0.8,0.8c0.5,0,0.8-0.3,0.8-0.8S52.2,37.9,51.8,37.9z M55,37.9c-0.5,0-0.8,0.3-0.8,0.8
	s0.4,0.8,0.8,0.8s0.8-0.3,0.8-0.8S55.5,37.9,55,37.9z M58.3,37.9c-0.5,0-0.8,0.3-0.8,0.8s0.4,0.8,0.8,0.8s0.8-0.3,0.8-0.8
	S58.7,37.9,58.3,37.9z M9.8,41.1c-0.5,0-0.8,0.4-0.8,0.8s0.4,0.8,0.8,0.8s0.8-0.4,0.8-0.8S10.2,41.1,9.8,41.1z M13,41.1
	c-0.4,0-0.8,0.4-0.8,0.8s0.4,0.8,0.8,0.8c0.5,0,0.9-0.4,0.9-0.8C13.8,41.5,13.4,41.1,13,41.1z M16.2,41.1c-0.5,0-0.8,0.4-0.8,0.8
	s0.4,0.8,0.8,0.8c0.5,0,0.8-0.4,0.8-0.8S16.7,41.1,16.2,41.1z M19.5,41.1c-0.5,0-0.8,0.4-0.8,0.8s0.3,0.8,0.8,0.8s0.8-0.4,0.8-0.8
	S19.9,41.1,19.5,41.1z M22.7,41.1c-0.5,0-0.8,0.4-0.8,0.8s0.4,0.8,0.8,0.8s0.8-0.4,0.8-0.8S23.1,41.1,22.7,41.1z M25.9,41.1
	c-0.4,0-0.8,0.4-0.8,0.8s0.4,0.8,0.8,0.8c0.5,0,0.8-0.4,0.8-0.8S26.4,41.1,25.9,41.1z M29.2,41.1c-0.5,0-0.8,0.4-0.8,0.8
	s0.3,0.8,0.8,0.8s0.8-0.4,0.8-0.8S29.6,41.1,29.2,41.1z M32.4,41.1c-0.5,0-0.8,0.4-0.8,0.8s0.4,0.8,0.8,0.8s0.8-0.4,0.8-0.8
	S32.8,41.1,32.4,41.1z M35.6,41.1c-0.5,0-0.8,0.4-0.8,0.8s0.4,0.8,0.8,0.8s0.8-0.4,0.8-0.8S36.1,41.1,35.6,41.1z M38.8,41.1
	c-0.4,0-0.8,0.4-0.8,0.8s0.4,0.8,0.8,0.8c0.5,0,0.8-0.4,0.8-0.8C39.7,41.5,39.3,41.1,38.8,41.1z M42.1,41.1c-0.5,0-0.8,0.4-0.8,0.8
	s0.4,0.8,0.8,0.8s0.8-0.4,0.8-0.8S42.6,41.1,42.1,41.1z M45.3,41.1c-0.5,0-0.8,0.4-0.8,0.8s0.4,0.8,0.8,0.8s0.8-0.4,0.8-0.8
	S45.8,41.1,45.3,41.1z M48.5,41.1c-0.4,0-0.8,0.4-0.8,0.8s0.4,0.8,0.8,0.8c0.5,0,0.8-0.4,0.8-0.8C49.4,41.5,49,41.1,48.5,41.1z
	 M51.8,41.1c-0.4,0-0.8,0.4-0.8,0.8s0.4,0.8,0.8,0.8c0.5,0,0.8-0.4,0.8-0.8S52.2,41.1,51.8,41.1z M55,41.1c-0.5,0-0.8,0.4-0.8,0.8
	s0.4,0.8,0.8,0.8s0.8-0.4,0.8-0.8S55.5,41.1,55,41.1z M19.5,44.3c-0.5,0-0.8,0.4-0.8,0.8c0,0.5,0.3,0.8,0.8,0.8s0.8-0.4,0.8-0.8
	S19.9,44.3,19.5,44.3z M13,44.4c-0.4,0-0.8,0.3-0.8,0.8S12.6,46,13,46c0.5,0,0.9-0.3,0.9-0.8S13.4,44.4,13,44.4z M16.2,44.4
	c-0.5,0-0.8,0.3-0.8,0.8s0.4,0.8,0.8,0.8c0.5,0,0.8-0.3,0.8-0.8S16.7,44.4,16.2,44.4z M22.7,44.4c-0.5,0-0.8,0.3-0.8,0.8
	s0.4,0.8,0.8,0.8s0.8-0.3,0.8-0.8S23.1,44.4,22.7,44.4z M25.9,44.4c-0.4,0-0.8,0.3-0.8,0.8s0.4,0.8,0.8,0.8c0.5,0,0.8-0.3,0.8-0.8
	S26.4,44.4,25.9,44.4z M29.2,44.4c-0.5,0-0.8,0.3-0.8,0.8s0.3,0.8,0.8,0.8s0.8-0.3,0.8-0.8S29.6,44.4,29.2,44.4z M32.4,44.4
	c-0.5,0-0.8,0.3-0.8,0.8S32,46,32.4,46s0.8-0.3,0.8-0.8S32.8,44.4,32.4,44.4z M35.6,44.4c-0.5,0-0.8,0.3-0.8,0.8s0.4,0.8,0.8,0.8
	s0.8-0.3,0.8-0.8S36.1,44.4,35.6,44.4z M38.8,44.4c-0.4,0-0.8,0.3-0.8,0.8s0.4,0.8,0.8,0.8c0.5,0,0.8-0.3,0.8-0.8
	S39.3,44.4,38.8,44.4z M42.1,44.4c-0.5,0-0.8,0.3-0.8,0.8s0.4,0.8,0.8,0.8s0.8-0.3,0.8-0.8S42.6,44.4,42.1,44.4z M45.3,44.4
	c-0.5,0-0.8,0.3-0.8,0.8s0.4,0.8,0.8,0.8s0.8-0.3,0.8-0.8S45.8,44.4,45.3,44.4z M48.5,44.4c-0.4,0-0.8,0.3-0.8,0.8s0.4,0.8,0.8,0.8
	c0.5,0,0.8-0.3,0.8-0.8S49,44.4,48.5,44.4z M51.8,44.4c-0.4,0-0.8,0.3-0.8,0.8s0.4,0.8,0.8,0.8c0.5,0,0.8-0.3,0.8-0.8
	S52.2,44.4,51.8,44.4z M19.5,47.5c-0.5,0-0.8,0.3-0.8,0.8s0.3,0.8,0.8,0.8s0.8-0.3,0.8-0.8S19.9,47.5,19.5,47.5z M9.8,47.6
	c-0.5,0-0.8,0.3-0.8,0.8s0.4,0.8,0.8,0.8s0.8-0.4,0.8-0.8S10.2,47.6,9.8,47.6z M13,47.6c-0.4,0-0.8,0.3-0.8,0.8s0.4,0.8,0.8,0.8
	c0.5,0,0.9-0.4,0.9-0.8S13.4,47.6,13,47.6z M16.2,47.6c-0.5,0-0.8,0.3-0.8,0.8s0.4,0.8,0.8,0.8c0.5,0,0.8-0.4,0.8-0.8
	S16.7,47.6,16.2,47.6z M22.7,47.6c-0.5,0-0.8,0.3-0.8,0.8s0.4,0.8,0.8,0.8s0.8-0.4,0.8-0.8S23.1,47.6,22.7,47.6z M25.9,47.6
	c-0.4,0-0.8,0.3-0.8,0.8s0.4,0.8,0.8,0.8c0.5,0,0.8-0.4,0.8-0.8S26.4,47.6,25.9,47.6z M29.2,47.6c-0.5,0-0.8,0.3-0.8,0.8
	s0.3,0.8,0.8,0.8s0.8-0.4,0.8-0.8S29.6,47.6,29.2,47.6z M32.4,47.6c-0.5,0-0.8,0.3-0.8,0.8s0.4,0.8,0.8,0.8s0.8-0.4,0.8-0.8
	S32.8,47.6,32.4,47.6z M35.6,47.6c-0.5,0-0.8,0.3-0.8,0.8s0.4,0.8,0.8,0.8s0.8-0.4,0.8-0.8S36.1,47.6,35.6,47.6z M38.8,47.6
	c-0.4,0-0.8,0.3-0.8,0.8s0.4,0.8,0.8,0.8c0.5,0,0.8-0.4,0.8-0.8S39.3,47.6,38.8,47.6z M42.1,47.6c-0.5,0-0.8,0.3-0.8,0.8
	s0.4,0.8,0.8,0.8s0.8-0.4,0.8-0.8S42.6,47.6,42.1,47.6z M45.3,47.6c-0.5,0-0.8,0.3-0.8,0.8s0.4,0.8,0.8,0.8s0.8-0.4,0.8-0.8
	S45.8,47.6,45.3,47.6z M55,47.6c-0.5,0-0.8,0.3-0.8,0.8s0.4,0.8,0.8,0.8s0.8-0.4,0.8-0.8S55.5,47.6,55,47.6z M13,50.8
	c-0.4,0-0.8,0.3-0.8,0.8s0.4,0.8,0.8,0.8c0.5,0,0.9-0.4,0.9-0.8S13.4,50.8,13,50.8z M16.2,50.8c-0.5,0-0.8,0.3-0.8,0.8
	s0.4,0.8,0.8,0.8c0.5,0,0.8-0.4,0.8-0.8S16.7,50.8,16.2,50.8z M19.5,50.8c-0.5,0-0.8,0.3-0.8,0.8s0.3,0.8,0.8,0.8s0.8-0.4,0.8-0.8
	S19.9,50.8,19.5,50.8z M22.7,50.8c-0.5,0-0.8,0.4-0.8,0.8s0.4,0.8,0.8,0.8s0.8-0.4,0.8-0.8S23.1,50.8,22.7,50.8z M25.9,50.8
	c-0.4,0-0.8,0.4-0.8,0.8s0.4,0.8,0.8,0.8c0.5,0,0.8-0.4,0.8-0.8S26.4,50.8,25.9,50.8z M29.2,50.8c-0.5,0-0.8,0.4-0.8,0.8
	s0.3,0.8,0.8,0.8S30,52,30,51.6S29.6,50.8,29.2,50.8z M32.4,50.8c-0.5,0-0.8,0.4-0.8,0.8s0.4,0.8,0.8,0.8s0.8-0.4,0.8-0.8
	S32.8,50.8,32.4,50.8z M35.6,50.8c-0.5,0-0.8,0.4-0.8,0.8s0.4,0.8,0.8,0.8s0.8-0.4,0.8-0.8S36.1,50.8,35.6,50.8z M38.8,50.8
	c-0.4,0-0.8,0.4-0.8,0.8s0.4,0.8,0.8,0.8c0.5,0,0.8-0.4,0.8-0.8C39.7,51.2,39.3,50.8,38.8,50.8z M42.1,50.8c-0.5,0-0.8,0.4-0.8,0.8
	s0.4,0.8,0.8,0.8s0.8-0.4,0.8-0.8S42.6,50.8,42.1,50.8z M45.3,50.8c-0.5,0-0.8,0.4-0.8,0.8s0.4,0.8,0.8,0.8s0.8-0.4,0.8-0.8
	S45.8,50.8,45.3,50.8z M55,50.8c-0.5,0-0.8,0.4-0.8,0.8s0.4,0.8,0.8,0.8s0.8-0.4,0.8-0.8S55.5,50.8,55,50.8z M58.3,50.8
	c-0.5,0-0.8,0.4-0.8,0.8s0.4,0.8,0.8,0.8s0.8-0.3,0.8-0.8S58.7,50.8,58.3,50.8z M13,54c-0.4,0-0.8,0.4-0.8,0.8s0.4,0.8,0.8,0.8
	c0.5,0,0.9-0.4,0.9-0.8C13.8,54.4,13.4,54,13,54z M16.2,54c-0.5,0-0.8,0.4-0.8,0.8s0.4,0.8,0.8,0.8c0.5,0,0.8-0.4,0.8-0.8
	S16.7,54,16.2,54z M19.5,54c-0.5,0-0.8,0.4-0.8,0.8s0.3,0.8,0.8,0.8s0.8-0.4,0.8-0.8S19.9,54,19.5,54z M22.7,54
	c-0.5,0-0.8,0.4-0.8,0.8c0,0.5,0.4,0.8,0.8,0.8s0.8-0.4,0.8-0.8S23.1,54,22.7,54z M25.9,54c-0.4,0-0.8,0.4-0.8,0.8
	c0,0.5,0.4,0.8,0.8,0.8c0.5,0,0.8-0.4,0.8-0.8S26.4,54,25.9,54z M29.2,54c-0.5,0-0.8,0.4-0.8,0.8c0,0.5,0.3,0.8,0.8,0.8
	s0.8-0.4,0.8-0.8S29.6,54,29.2,54z M32.4,54c-0.5,0-0.8,0.4-0.8,0.8c0,0.5,0.4,0.8,0.8,0.8s0.8-0.4,0.8-0.8S32.8,54,32.4,54z
	 M35.6,54c-0.5,0-0.8,0.4-0.8,0.8c0,0.5,0.4,0.8,0.8,0.8s0.8-0.4,0.8-0.8S36.1,54,35.6,54z M38.8,54c-0.4,0-0.8,0.4-0.8,0.8
	c0,0.5,0.4,0.8,0.8,0.8c0.5,0,0.8-0.4,0.8-0.8C39.7,54.4,39.3,54,38.8,54z M42.1,54c-0.5,0-0.8,0.4-0.8,0.8c0,0.5,0.4,0.8,0.8,0.8
	s0.8-0.4,0.8-0.8S42.6,54,42.1,54z M45.3,54c-0.5,0-0.8,0.4-0.8,0.8c0,0.5,0.4,0.8,0.8,0.8s0.8-0.4,0.8-0.8S45.8,54,45.3,54z
	 M48.5,54c-0.4,0-0.8,0.4-0.8,0.8c0,0.5,0.4,0.8,0.8,0.8c0.5,0,0.8-0.4,0.8-0.8C49.4,54.4,49,54,48.5,54z M51.8,54
	c-0.4,0-0.8,0.4-0.8,0.8c0,0.5,0.4,0.8,0.8,0.8c0.5,0,0.8-0.4,0.8-0.8S52.2,54,51.8,54z M55,54c-0.5,0-0.8,0.4-0.8,0.8
	c0,0.5,0.4,0.8,0.8,0.8s0.8-0.4,0.8-0.8S55.5,54,55,54z M58.3,54c-0.5,0-0.8,0.4-0.8,0.9c0,0.4,0.4,0.8,0.8,0.8s0.8-0.4,0.8-0.8
	C59,54.4,58.7,54,58.3,54z M16.2,57.3c-0.5,0-0.8,0.4-0.8,0.8s0.4,0.8,0.8,0.8c0.5,0,0.8-0.3,0.8-0.8S16.7,57.3,16.2,57.3z
	 M19.5,57.3c-0.5,0-0.8,0.4-0.8,0.8c0,0.5,0.3,0.8,0.8,0.8s0.8-0.4,0.8-0.8C20.3,57.6,19.9,57.3,19.5,57.3z M22.7,57.3
	c-0.5,0-0.8,0.4-0.8,0.8s0.4,0.8,0.8,0.8s0.8-0.3,0.8-0.8S23.1,57.3,22.7,57.3z M25.9,57.3c-0.4,0-0.8,0.4-0.8,0.8s0.4,0.8,0.8,0.8
	c0.5,0,0.8-0.3,0.8-0.8S26.4,57.3,25.9,57.3z M29.2,57.3c-0.5,0-0.8,0.4-0.8,0.8s0.3,0.8,0.8,0.8s0.8-0.3,0.8-0.8
	S29.6,57.3,29.2,57.3z M32.4,57.3c-0.5,0-0.8,0.4-0.8,0.8s0.4,0.8,0.8,0.8s0.8-0.3,0.8-0.8S32.8,57.3,32.4,57.3z M35.6,57.3
	c-0.5,0-0.8,0.4-0.8,0.8s0.4,0.8,0.8,0.8s0.8-0.3,0.8-0.8S36.1,57.3,35.6,57.3z M38.8,57.3c-0.4,0-0.8,0.4-0.8,0.8s0.4,0.8,0.8,0.8
	c0.5,0,0.8-0.3,0.8-0.8S39.3,57.3,38.8,57.3z M42.1,57.3c-0.5,0-0.8,0.4-0.8,0.8s0.4,0.8,0.8,0.8s0.8-0.3,0.8-0.8
	S42.6,57.3,42.1,57.3z M45.3,57.3c-0.5,0-0.8,0.4-0.8,0.8s0.4,0.8,0.8,0.8s0.8-0.3,0.8-0.8S45.8,57.3,45.3,57.3z M48.5,57.3
	c-0.4,0-0.8,0.4-0.8,0.8s0.4,0.8,0.8,0.8c0.5,0,0.8-0.3,0.8-0.8S49,57.3,48.5,57.3z M51.8,57.3c-0.4,0-0.8,0.4-0.8,0.8
	s0.4,0.8,0.8,0.8c0.5,0,0.8-0.3,0.8-0.8S52.2,57.3,51.8,57.3z M55,57.3c-0.5,0-0.8,0.4-0.8,0.8s0.4,0.8,0.8,0.8s0.8-0.3,0.8-0.8
	S55.5,57.3,55,57.3z M58.3,57.3c-0.5,0-0.8,0.4-0.8,0.8s0.4,0.8,0.8,0.8s0.8-0.3,0.8-0.8S58.7,57.3,58.3,57.3z M16.2,60.5
	c-0.5,0-0.8,0.4-0.8,0.8s0.4,0.8,0.8,0.8c0.5,0,0.8-0.3,0.8-0.8S16.7,60.5,16.2,60.5z M19.5,60.5c-0.5,0-0.8,0.3-0.8,0.8
	s0.3,0.8,0.8,0.8s0.8-0.4,0.8-0.8S19.9,60.5,19.5,60.5z M22.7,60.5c-0.5,0-0.8,0.4-0.8,0.8s0.4,0.8,0.8,0.8s0.8-0.3,0.8-0.8
	S23.1,60.5,22.7,60.5z M25.9,60.5c-0.4,0-0.8,0.4-0.8,0.8s0.4,0.8,0.8,0.8c0.5,0,0.8-0.3,0.8-0.8S26.4,60.5,25.9,60.5z M29.2,60.5
	c-0.5,0-0.8,0.4-0.8,0.8s0.3,0.8,0.8,0.8s0.8-0.3,0.8-0.8S29.6,60.5,29.2,60.5z M32.4,60.5c-0.5,0-0.8,0.4-0.8,0.8s0.4,0.8,0.8,0.8
	s0.8-0.3,0.8-0.8S32.8,60.5,32.4,60.5z M35.6,60.5c-0.5,0-0.8,0.4-0.8,0.8s0.4,0.8,0.8,0.8s0.8-0.3,0.8-0.8S36.1,60.5,35.6,60.5z
	 M38.8,60.5c-0.4,0-0.8,0.4-0.8,0.8s0.4,0.8,0.8,0.8c0.5,0,0.8-0.3,0.8-0.8S39.3,60.5,38.8,60.5z M42.1,60.5c-0.5,0-0.8,0.4-0.8,0.8
	s0.4,0.8,0.8,0.8s0.8-0.3,0.8-0.8S42.6,60.5,42.1,60.5z M45.3,60.5c-0.5,0-0.8,0.4-0.8,0.8s0.4,0.8,0.8,0.8s0.8-0.3,0.8-0.8
	S45.8,60.5,45.3,60.5z M48.5,60.5c-0.4,0-0.8,0.4-0.8,0.8s0.4,0.8,0.8,0.8c0.5,0,0.8-0.3,0.8-0.8S49,60.5,48.5,60.5z M51.8,60.5
	c-0.4,0-0.8,0.4-0.8,0.8s0.4,0.8,0.8,0.8c0.5,0,0.8-0.3,0.8-0.8S52.2,60.5,51.8,60.5z M55,60.5c-0.5,0-0.8,0.4-0.8,0.8
	s0.4,0.8,0.8,0.8s0.8-0.3,0.8-0.8S55.5,60.5,55,60.5z M58.3,60.5c-0.5,0-0.8,0.3-0.8,0.8s0.4,0.8,0.8,0.8s0.8-0.3,0.8-0.8
	S58.7,60.5,58.3,60.5z M61.5,60.5c-0.4,0-0.8,0.3-0.8,0.8s0.4,0.8,0.8,0.8c0.5,0,0.8-0.3,0.8-0.8S61.9,60.5,61.5,60.5z M19.5,63.7
	c-0.5,0-0.8,0.4-0.8,0.8s0.3,0.8,0.8,0.8s0.8-0.4,0.8-0.8S19.9,63.7,19.5,63.7z M16.2,63.8c-0.5,0-0.8,0.4-0.8,0.8s0.4,0.8,0.8,0.8
	c0.5,0,0.8-0.4,0.8-0.8C17,64.1,16.7,63.8,16.2,63.8z M22.7,63.8c-0.5,0-0.8,0.4-0.8,0.8s0.4,0.8,0.8,0.8s0.8-0.4,0.8-0.8
	C23.5,64.1,23.1,63.8,22.7,63.8z M25.9,63.8c-0.4,0-0.8,0.4-0.8,0.8s0.4,0.8,0.8,0.8c0.5,0,0.8-0.4,0.8-0.8
	C26.7,64.1,26.4,63.8,25.9,63.8z M29.2,63.8c-0.5,0-0.8,0.4-0.8,0.8s0.3,0.8,0.8,0.8S30,65,30,64.6C30,64.1,29.6,63.8,29.2,63.8z
	 M32.4,63.8c-0.5,0-0.8,0.4-0.8,0.8s0.4,0.8,0.8,0.8s0.8-0.4,0.8-0.8C33.2,64.1,32.8,63.8,32.4,63.8z M35.6,63.8
	c-0.5,0-0.8,0.4-0.8,0.8s0.4,0.8,0.8,0.8s0.8-0.4,0.8-0.8C36.4,64.1,36.1,63.8,35.6,63.8z M38.8,63.8c-0.4,0-0.8,0.4-0.8,0.8
	s0.4,0.8,0.8,0.8c0.5,0,0.8-0.4,0.8-0.8C39.7,64.1,39.3,63.8,38.8,63.8z M42.1,63.8c-0.5,0-0.8,0.4-0.8,0.8s0.4,0.8,0.8,0.8
	s0.8-0.4,0.8-0.8C42.9,64.1,42.6,63.8,42.1,63.8z M45.3,63.8c-0.5,0-0.8,0.4-0.8,0.8s0.4,0.8,0.8,0.8s0.8-0.4,0.8-0.8
	C46.1,64.1,45.8,63.8,45.3,63.8z M48.5,63.8c-0.4,0-0.8,0.4-0.8,0.8s0.4,0.8,0.8,0.8c0.5,0,0.8-0.4,0.8-0.8
	C49.4,64.1,49,63.8,48.5,63.8z M51.8,63.8c-0.4,0-0.8,0.4-0.8,0.8s0.4,0.8,0.8,0.8c0.5,0,0.8-0.4,0.8-0.8
	C52.6,64.1,52.2,63.8,51.8,63.8z M55,63.8c-0.5,0-0.8,0.4-0.8,0.8s0.4,0.8,0.8,0.8s0.8-0.4,0.8-0.8C55.8,64.1,55.5,63.8,55,63.8z
	 M58.3,63.8c-0.5,0-0.8,0.3-0.8,0.8c0,0.4,0.4,0.8,0.8,0.8s0.8-0.4,0.8-0.8C59,64.1,58.7,63.8,58.3,63.8z M61.5,63.8
	c-0.4,0-0.8,0.3-0.8,0.8c0,0.4,0.4,0.8,0.8,0.8c0.5,0,0.8-0.4,0.8-0.8C62.3,64.1,61.9,63.8,61.5,63.8z M19.5,66.9
	c-0.5,0-0.8,0.4-0.8,0.8s0.3,0.8,0.8,0.8s0.8-0.4,0.8-0.8S19.9,66.9,19.5,66.9z M16.2,67c-0.5,0-0.8,0.4-0.8,0.8
	c0,0.5,0.4,0.8,0.8,0.8c0.5,0,0.8-0.4,0.8-0.8S16.7,67,16.2,67z M22.7,67c-0.5,0-0.8,0.4-0.8,0.8c0,0.5,0.4,0.8,0.8,0.8
	s0.8-0.4,0.8-0.8S23.1,67,22.7,67z M25.9,67c-0.4,0-0.8,0.4-0.8,0.8c0,0.5,0.4,0.8,0.8,0.8c0.5,0,0.8-0.4,0.8-0.8S26.4,67,25.9,67z
	 M29.2,67c-0.5,0-0.8,0.4-0.8,0.8c0,0.5,0.3,0.8,0.8,0.8s0.8-0.4,0.8-0.8S29.6,67,29.2,67z M32.4,67c-0.5,0-0.8,0.4-0.8,0.8
	c0,0.5,0.4,0.8,0.8,0.8s0.8-0.4,0.8-0.8S32.8,67,32.4,67z M35.6,67c-0.5,0-0.8,0.4-0.8,0.8c0,0.5,0.4,0.8,0.8,0.8s0.8-0.4,0.8-0.8
	S36.1,67,35.6,67z M38.8,67c-0.4,0-0.8,0.4-0.8,0.8c0,0.5,0.4,0.8,0.8,0.8c0.5,0,0.8-0.4,0.8-0.8C39.7,67.4,39.3,67,38.8,67z
	 M42.1,67c-0.5,0-0.8,0.4-0.8,0.8c0,0.5,0.4,0.8,0.8,0.8s0.8-0.4,0.8-0.8S42.6,67,42.1,67z M45.3,67c-0.5,0-0.8,0.4-0.8,0.8
	c0,0.5,0.4,0.8,0.8,0.8s0.8-0.4,0.8-0.8S45.8,67,45.3,67z M48.5,67c-0.4,0-0.8,0.4-0.8,0.8c0,0.5,0.4,0.8,0.8,0.8
	c0.5,0,0.8-0.4,0.8-0.8C49.4,67.4,49,67,48.5,67z M51.8,67c-0.4,0-0.8,0.4-0.8,0.8c0,0.5,0.4,0.8,0.8,0.8c0.5,0,0.8-0.4,0.8-0.8
	S52.2,67,51.8,67z M55,67c-0.5,0-0.8,0.4-0.8,0.8c0,0.5,0.4,0.8,0.8,0.8s0.8-0.4,0.8-0.8S55.5,67,55,67z M58.3,67
	c-0.5,0-0.8,0.4-0.8,0.8s0.4,0.8,0.8,0.8s0.8-0.4,0.8-0.8C59,67.3,58.7,67,58.3,67z M61.5,67c-0.4,0-0.8,0.4-0.8,0.8
	s0.4,0.8,0.8,0.8c0.5,0,0.8-0.4,0.8-0.8C62.3,67.3,61.9,67,61.5,67z M19.5,70.2c-0.5,0-0.8,0.4-0.8,0.8s0.3,0.8,0.8,0.8
	s0.8-0.3,0.8-0.8S19.9,70.2,19.5,70.2z M22.7,70.2c-0.5,0-0.8,0.3-0.8,0.8s0.4,0.8,0.8,0.8s0.8-0.3,0.8-0.8S23.1,70.2,22.7,70.2z
	 M25.9,70.2c-0.4,0-0.8,0.3-0.8,0.8s0.4,0.8,0.8,0.8c0.5,0,0.8-0.3,0.8-0.8S26.4,70.2,25.9,70.2z M29.2,70.2c-0.5,0-0.8,0.3-0.8,0.8
	s0.3,0.8,0.8,0.8S30,71.5,30,71S29.6,70.2,29.2,70.2z M32.4,70.2c-0.5,0-0.8,0.3-0.8,0.8s0.4,0.8,0.8,0.8s0.8-0.3,0.8-0.8
	S32.8,70.2,32.4,70.2z M35.6,70.2c-0.5,0-0.8,0.3-0.8,0.8s0.4,0.8,0.8,0.8s0.8-0.3,0.8-0.8S36.1,70.2,35.6,70.2z M38.8,70.2
	c-0.4,0-0.8,0.3-0.8,0.8s0.4,0.8,0.8,0.8c0.5,0,0.8-0.3,0.8-0.8S39.3,70.2,38.8,70.2z M42.1,70.2c-0.5,0-0.8,0.3-0.8,0.8
	s0.4,0.8,0.8,0.8s0.8-0.3,0.8-0.8S42.6,70.2,42.1,70.2z M55,70.2c-0.5,0-0.8,0.3-0.8,0.8s0.4,0.8,0.8,0.8s0.8-0.3,0.8-0.8
	S55.5,70.2,55,70.2z M58.3,70.2c-0.5,0-0.8,0.3-0.8,0.8s0.4,0.8,0.8,0.8s0.8-0.3,0.8-0.8S58.7,70.2,58.3,70.2z M61.5,70.2
	c-0.4,0-0.8,0.3-0.8,0.8s0.4,0.8,0.8,0.8c0.5,0,0.8-0.3,0.8-0.8S61.9,70.2,61.5,70.2z M19.5,73.4c-0.5,0-0.8,0.3-0.8,0.8
	S19,75,19.5,75s0.8-0.4,0.8-0.8S19.9,73.4,19.5,73.4z M22.7,73.4c-0.5,0-0.8,0.3-0.8,0.8s0.4,0.8,0.8,0.8s0.8-0.4,0.8-0.8
	S23.1,73.4,22.7,73.4z M25.9,73.4c-0.4,0-0.8,0.3-0.8,0.8s0.4,0.8,0.8,0.8c0.5,0,0.8-0.4,0.8-0.8S26.4,73.4,25.9,73.4z M29.2,73.4
	c-0.5,0-0.8,0.3-0.8,0.8s0.3,0.8,0.8,0.8s0.8-0.4,0.8-0.8S29.6,73.4,29.2,73.4z M32.4,73.4c-0.5,0-0.8,0.3-0.8,0.8S32,75,32.4,75
	s0.8-0.4,0.8-0.8S32.8,73.4,32.4,73.4z M35.6,73.4c-0.5,0-0.8,0.3-0.8,0.8s0.4,0.8,0.8,0.8s0.8-0.4,0.8-0.8S36.1,73.4,35.6,73.4z
	 M38.8,73.4c-0.4,0-0.8,0.3-0.8,0.8s0.4,0.8,0.8,0.8c0.5,0,0.8-0.4,0.8-0.8S39.3,73.4,38.8,73.4z M55,73.4c-0.5,0-0.8,0.3-0.8,0.8
	S54.6,75,55,75s0.8-0.4,0.8-0.8S55.5,73.4,55,73.4z M58.3,73.4c-0.5,0-0.8,0.4-0.8,0.8s0.4,0.8,0.8,0.8s0.8-0.3,0.8-0.8
	S58.7,73.4,58.3,73.4z M61.5,73.4c-0.4,0-0.8,0.4-0.8,0.8S61,75,61.5,75s0.8-0.3,0.8-0.8S61.9,73.4,61.5,73.4z M19.5,76.6
	c-0.5,0-0.8,0.3-0.8,0.8s0.3,0.8,0.8,0.8s0.8-0.4,0.8-0.8S19.9,76.6,19.5,76.6z M22.7,76.6c-0.5,0-0.8,0.4-0.8,0.9
	c0,0.4,0.4,0.8,0.8,0.8s0.8-0.4,0.8-0.8C23.5,77,23.1,76.6,22.7,76.6z M25.9,76.6c-0.4,0-0.8,0.4-0.8,0.9c0,0.4,0.4,0.8,0.8,0.8
	c0.5,0,0.8-0.4,0.8-0.8C26.7,77,26.4,76.6,25.9,76.6z M51.8,76.6c-0.4,0-0.8,0.4-0.8,0.9c0,0.4,0.4,0.8,0.8,0.8
	c0.5,0,0.8-0.4,0.8-0.8C52.6,77,52.2,76.6,51.8,76.6z M55,76.6c-0.5,0-0.8,0.4-0.8,0.9c0,0.4,0.4,0.8,0.8,0.8s0.8-0.4,0.8-0.8
	C55.8,77,55.5,76.6,55,76.6z M58.3,76.6c-0.5,0-0.8,0.4-0.8,0.8s0.4,0.8,0.8,0.8s0.8-0.4,0.8-0.8C59,77,58.7,76.6,58.3,76.6z
	 M61.5,76.6c-0.4,0-0.8,0.4-0.8,0.8s0.4,0.8,0.8,0.8c0.5,0,0.8-0.4,0.8-0.8S61.9,76.6,61.5,76.6z M51.8,79.9c-0.4,0-0.8,0.4-0.8,0.8
	c0,0.5,0.4,0.8,0.8,0.8c0.5,0,0.8-0.4,0.8-0.8S52.2,79.9,51.8,79.9z M55,79.9c-0.5,0-0.8,0.4-0.8,0.8c0,0.5,0.4,0.8,0.8,0.8
	s0.8-0.4,0.8-0.8S55.5,79.9,55,79.9z M58.3,79.9c-0.5,0-0.8,0.4-0.8,0.8c0,0.5,0.4,0.8,0.8,0.8s0.8-0.4,0.8-0.8
	C59,80.2,58.7,79.9,58.3,79.9z M61.5,79.9c-0.4,0-0.8,0.4-0.8,0.8c0,0.5,0.4,0.8,0.8,0.8c0.5,0,0.8-0.4,0.8-0.8
	C62.3,80.2,61.9,79.9,61.5,79.9z M55,83.1c-0.5,0-0.8,0.4-0.8,0.8s0.4,0.8,0.8,0.8s0.8-0.3,0.8-0.8S55.5,83.1,55,83.1z M58.3,83.1
	c-0.5,0-0.8,0.3-0.8,0.8s0.4,0.8,0.8,0.8s0.8-0.3,0.8-0.8S58.7,83.1,58.3,83.1z M61.5,83.1c-0.4,0-0.8,0.3-0.8,0.8s0.4,0.8,0.8,0.8
	c0.5,0,0.8-0.3,0.8-0.8S61.9,83.1,61.5,83.1z M64.7,83.1c-0.5,0-0.8,0.3-0.8,0.8s0.3,0.8,0.8,0.8s0.8-0.3,0.8-0.8
	S65.1,83.1,64.7,83.1z M58.3,86.3c-0.5,0-0.8,0.3-0.8,0.8s0.4,0.8,0.8,0.8s0.8-0.4,0.8-0.8S58.7,86.3,58.3,86.3z M58.3,89.6
	c-0.5,0-0.8,0.4-0.8,0.8s0.4,0.8,0.8,0.8s0.8-0.4,0.8-0.8C59,89.9,58.7,89.6,58.3,89.6z"/>
</svg>
