<svg xmlns="http://www.w3.org/2000/svg" viewBox="0 0 63 82.4"><title>bangladesh2</title><path d="M9.8,8.8a.8.8,0,0,0,0,1.6.9.9,0,0,0,.8-.8A.9.9,0,0,0,9.8,8.8Zm0,3.2a.7.7,0,0,0-.8.8.8.8,0,0,0,.8.8.8.8,0,1,0,0-1.6ZM13,12a.8.8,0,1,0,0,1.6.9.9,0,0,0,.9-.8A1,1,0,0,0,13,12Zm3.2,0a.7.7,0,0,0-.8.8.8.8,0,1,0,.8-.8Zm3.3,0a.7.7,0,0,0-.8.8.8.8,0,0,0,1.6,0A.9.9,0,0,0,19.5,12Zm0,3.2a.8.8,0,0,0,0,1.6.8.8,0,0,0,.8-.8A.9.9,0,0,0,19.5,15.2Zm-13,.1a.8.8,0,0,0,0,1.6.8.8,0,0,0,0-1.6Zm3.3,0a.7.7,0,0,0-.8.8.8.8,0,0,0,.8.8.8.8,0,1,0,0-1.6Zm3.2,0a.8.8,0,0,0,0,1.6.9.9,0,0,0,.9-.8A1,1,0,0,0,13,15.3Zm3.2,0a.7.7,0,0,0-.8.8.8.8,0,1,0,.8-.8Zm6.5,0a.7.7,0,0,0-.8.8.8.8,0,0,0,.8.8.8.8,0,1,0,0-1.6Zm3.2,0a.8.8,0,1,0,.8.8A.8.8,0,0,0,25.9,15.3ZM6.5,18.5a.8.8,0,0,0-.8.8.8.8,0,1,0,1.6,0A.8.8,0,0,0,6.5,18.5Zm3.3,0a.8.8,0,0,0-.8.8.9.9,0,0,0,.8.9.9.9,0,0,0,.8-.9A.9.9,0,0,0,9.8,18.5Zm3.2,0a.9.9,0,0,0-.8.8.9.9,0,0,0,.8.9.9.9,0,0,0,.9-.9A1.1,1.1,0,0,0,13,18.5Zm3.2,0a.8.8,0,0,0-.8.8.9.9,0,0,0,.8.9.8.8,0,0,0,.8-.9A.8.8,0,0,0,16.2,18.5Zm3.3,0a.8.8,0,1,0,.8.8A.8.8,0,0,0,19.5,18.5Zm3.2,0a.8.8,0,0,0,0,1.6.8.8,0,0,0,0-1.6Zm3.2,0a.9.9,0,0,0-.8.8.8.8,0,1,0,.8-.8ZM6.5,21.7a.8.8,0,1,0,0,1.6.8.8,0,0,0,0-1.6Zm3.3,0a.8.8,0,0,0-.8.8.9.9,0,0,0,.8.8.8.8,0,1,0,0-1.6Zm3.2,0a.8.8,0,0,0,0,1.6.8.8,0,0,0,.9-.8A.9.9,0,0,0,13,21.7Zm3.2,0a.8.8,0,0,0-.8.8.9.9,0,0,0,.8.8.8.8,0,1,0,0-1.6Zm3.3,0a.8.8,0,0,0-.8.8.7.7,0,0,0,.8.8.8.8,0,0,0,.8-.8A.9.9,0,0,0,19.5,21.7Zm3.2,0a.7.7,0,0,0-.8.8.8.8,0,1,0,.8-.8Zm3.2,0a.8.8,0,0,0,0,1.6.8.8,0,0,0,0-1.6ZM13,25a.8.8,0,0,0,0,1.6.8.8,0,0,0,.9-.8A.9.9,0,0,0,13,25Zm3.2,0a.7.7,0,0,0-.8.8.8.8,0,0,0,.8.8.8.8,0,0,0,0-1.6Zm3.3,0a.8.8,0,1,0,.8.8A.8.8,0,0,0,19.5,25Zm3.2,0a.7.7,0,0,0-.8.8.8.8,0,1,0,.8-.8Zm3.2,0a.8.8,0,0,0,0,1.6.8.8,0,0,0,0-1.6ZM9.8,28.2A.8.8,0,0,0,9,29a.9.9,0,0,0,.8.8.8.8,0,0,0,0-1.6Zm3.2,0a.8.8,0,0,0,0,1.6.9.9,0,0,0,.9-.8A1.1,1.1,0,0,0,13,28.2Zm3.2,0a.8.8,0,0,0-.8.8.9.9,0,0,0,.8.8.8.8,0,1,0,0-1.6Zm3.3,0a.7.7,0,0,0-.8.8.8.8,0,1,0,.8-.8Zm3.2,0a.8.8,0,0,0-.8.8.8.8,0,1,0,.8-.8Zm3.2,0a.8.8,0,0,0,0,1.6.8.8,0,0,0,0-1.6Zm3.3,0a.8.8,0,1,0,.8.8A.9.9,0,0,0,29.2,28.2Zm3.2,0a.8.8,0,0,0-.8.8.8.8,0,1,0,.8-.8Zm3.2,0a.8.8,0,0,0-.8.8.8.8,0,0,0,1.6,0A.8.8,0,0,0,35.6,28.2Zm3.2,0a.8.8,0,1,0,0,1.6.8.8,0,0,0,.8-.8C39.7,28.6,39.3,28.2,38.8,28.2Zm3.3,0a.8.8,0,0,0-.8.8.8.8,0,1,0,1.6,0A.8.8,0,0,0,42.1,28.2Zm3.2,0a.8.8,0,0,0-.8.8.8.8,0,0,0,1.6,0A.8.8,0,0,0,45.3,28.2Zm3.2,0a.8.8,0,1,0,0,1.6.8.8,0,0,0,.8-.8C49.4,28.6,49,28.2,48.5,28.2Zm3.3,0a.8.8,0,1,0,0,1.6.8.8,0,0,0,.8-.8A.9.9,0,0,0,51.8,28.2Zm3.2,0a.8.8,0,0,0-.8.8.8.8,0,0,0,1.6,0A.8.8,0,0,0,55,28.2Zm3.3,0a.7.7,0,0,0-.8.8.8.8,0,0,0,1.6,0C59,28.5,58.7,28.2,58.3,28.2ZM19.5,31.4a.8.8,0,0,0-.8.8.7.7,0,0,0,.8.8.8.8,0,0,0,.8-.8A.9.9,0,0,0,19.5,31.4Zm38.8,0a.8.8,0,0,0,0,1.6.9.9,0,0,0,.8-.8C59,31.8,58.7,31.4,58.3,31.4Zm3.2,0a.9.9,0,0,0-.8.8.8.8,0,0,0,1.6,0A.9.9,0,0,0,61.5,31.4Zm-55,.1a.8.8,0,0,0-.8.8.7.7,0,0,0,.8.8.8.8,0,1,0,0-1.6Zm3.3,0a.8.8,0,1,0,.8.8A.8.8,0,0,0,9.8,31.5Zm3.2,0a.9.9,0,0,0-.8.8.8.8,0,0,0,.8.8.8.8,0,0,0,.9-.8A.9.9,0,0,0,13,31.5Zm3.2,0a.8.8,0,1,0,0,1.6.8.8,0,0,0,0-1.6Zm6.5,0a.8.8,0,0,0,0,1.6.9.9,0,0,0,.8-.8A.8.8,0,0,0,22.7,31.5Zm3.2,0a.9.9,0,0,0-.8.8.8.8,0,0,0,1.6,0A.7.7,0,0,0,25.9,31.5Zm3.3,0a.8.8,0,0,0-.8.8.7.7,0,0,0,.8.8.8.8,0,0,0,0-1.6Zm3.2,0a.8.8,0,1,0,0,1.6.9.9,0,0,0,.8-.8A.8.8,0,0,0,32.4,31.5Zm3.2,0a.8.8,0,0,0,0,1.6.9.9,0,0,0,.8-.8A.7.7,0,0,0,35.6,31.5Zm3.2,0a.9.9,0,0,0-.8.8.8.8,0,1,0,1.6,0C39.7,31.8,39.3,31.5,38.8,31.5Zm3.3,0a.8.8,0,0,0,0,1.6.9.9,0,0,0,.8-.8A.7.7,0,0,0,42.1,31.5Zm3.2,0a.8.8,0,0,0,0,1.6.9.9,0,0,0,.8-.8A.7.7,0,0,0,45.3,31.5Zm3.2,0a.9.9,0,0,0-.8.8.8.8,0,1,0,1.6,0C49.4,31.8,49,31.5,48.5,31.5Zm3.3,0a.9.9,0,0,0-.8.8.8.8,0,1,0,.8-.8Zm3.2,0a.8.8,0,0,0,0,1.6.9.9,0,0,0,.8-.8A.7.7,0,0,0,55,31.5ZM3.3,34.6a.8.8,0,0,0,0,1.6.8.8,0,1,0,0-1.6Zm3.2,0a.8.8,0,0,0,0,1.6.8.8,0,1,0,0-1.6Zm3.3,0a.8.8,0,0,0-.8.8.9.9,0,0,0,.8.8.8.8,0,1,0,0-1.6Zm3.2,0a.8.8,0,0,0,0,1.6.8.8,0,0,0,.9-.8A.9.9,0,0,0,13,34.6Zm3.2,0a.8.8,0,0,0-.8.8.9.9,0,0,0,.8.8.8.8,0,0,0,0-1.6Zm3.3,0a.8.8,0,0,0-.8.8.8.8,0,1,0,1.6,0A.9.9,0,0,0,19.5,34.6Zm3.2,0a.8.8,0,0,0-.8.8.9.9,0,0,0,.8.8.8.8,0,0,0,0-1.6Zm3.2,0a.8.8,0,1,0,0,1.6.8.8,0,0,0,0-1.6Zm3.3,0a.8.8,0,0,0,0,1.6.7.7,0,0,0,.8-.8A.8.8,0,0,0,29.2,34.6Zm3.2,0a.8.8,0,0,0-.8.8.9.9,0,0,0,.8.8.8.8,0,0,0,0-1.6Zm3.2,0a.8.8,0,0,0-.8.8.9.9,0,0,0,.8.8.8.8,0,0,0,.8-.8A.7.7,0,0,0,35.6,34.6Zm3.2,0a.8.8,0,0,0,0,1.6.8.8,0,0,0,0-1.6Zm3.3,0a.8.8,0,0,0-.8.8.9.9,0,0,0,.8.8.8.8,0,0,0,.8-.8A.7.7,0,0,0,42.1,34.6Zm3.2,0a.8.8,0,0,0-.8.8.9.9,0,0,0,.8.8.8.8,0,0,0,.8-.8A.7.7,0,0,0,45.3,34.6Zm3.2,0a.8.8,0,0,0,0,1.6.8.8,0,0,0,0-1.6Zm3.3,0a.8.8,0,0,0,0,1.6.7.7,0,0,0,.8-.8A.8.8,0,0,0,51.8,34.6Zm3.2,0a.8.8,0,0,0-.8.8.9.9,0,0,0,.8.8.8.8,0,0,0,.8-.8A.7.7,0,0,0,55,34.6Zm3.3,0a.8.8,0,1,0,.8.8C59,35,58.7,34.6,58.3,34.6ZM6.5,37.9a.8.8,0,0,0,0,1.6.8.8,0,1,0,0-1.6Zm3.3,0a.8.8,0,0,0-.8.8.9.9,0,0,0,.8.8.8.8,0,0,0,0-1.6Zm3.2,0a.8.8,0,1,0,0,1.6.8.8,0,0,0,.9-.8A.9.9,0,0,0,13,37.9Zm3.2,0a.8.8,0,0,0-.8.8.9.9,0,0,0,.8.8.8.8,0,1,0,0-1.6Zm3.3,0a.8.8,0,1,0,0,1.6.7.7,0,0,0,.8-.8A.8.8,0,0,0,19.5,37.9Zm3.2,0a.7.7,0,0,0-.8.8.8.8,0,1,0,.8-.8Zm3.2,0a.8.8,0,0,0,0,1.6.8.8,0,1,0,0-1.6Zm3.3,0a.8.8,0,1,0,.8.8A.8.8,0,0,0,29.2,37.9Zm3.2,0a.7.7,0,0,0-.8.8.8.8,0,1,0,.8-.8Zm3.2,0a.7.7,0,0,0-.8.8.8.8,0,0,0,1.6,0A.7.7,0,0,0,35.6,37.9Zm3.2,0a.8.8,0,0,0,0,1.6.8.8,0,1,0,0-1.6Zm3.3,0a.7.7,0,0,0-.8.8.8.8,0,0,0,1.6,0A.7.7,0,0,0,42.1,37.9Zm3.2,0a.7.7,0,0,0-.8.8.8.8,0,0,0,1.6,0A.7.7,0,0,0,45.3,37.9Zm3.2,0a.8.8,0,0,0,0,1.6.8.8,0,1,0,0-1.6Zm3.3,0a.8.8,0,0,0,0,1.6.7.7,0,0,0,.8-.8A.8.8,0,0,0,51.8,37.9Zm3.2,0a.7.7,0,0,0-.8.8.8.8,0,0,0,1.6,0A.7.7,0,0,0,55,37.9Zm3.3,0a.7.7,0,0,0-.8.8.8.8,0,1,0,.8-.8ZM9.8,41.1a.8.8,0,0,0-.8.8.9.9,0,0,0,.8.8.8.8,0,1,0,0-1.6Zm3.2,0a.8.8,0,0,0,0,1.6.9.9,0,0,0,.9-.8A1.1,1.1,0,0,0,13,41.1Zm3.2,0a.8.8,0,0,0-.8.8.9.9,0,0,0,.8.8.8.8,0,0,0,0-1.6Zm3.3,0a.8.8,0,1,0,.8.8A.9.9,0,0,0,19.5,41.1Zm3.2,0a.8.8,0,0,0-.8.8.8.8,0,1,0,.8-.8Zm3.2,0a.8.8,0,0,0,0,1.6.8.8,0,1,0,0-1.6Zm3.3,0a.8.8,0,1,0,.8.8A.9.9,0,0,0,29.2,41.1Zm3.2,0a.8.8,0,0,0-.8.8.8.8,0,1,0,.8-.8Zm3.2,0a.8.8,0,0,0-.8.8.8.8,0,1,0,1.6,0A.8.8,0,0,0,35.6,41.1Zm3.2,0a.8.8,0,0,0,0,1.6.8.8,0,0,0,.8-.8C39.7,41.5,39.3,41.1,38.8,41.1Zm3.3,0a.8.8,0,0,0-.8.8.8.8,0,1,0,1.6,0A.8.8,0,0,0,42.1,41.1Zm3.2,0a.8.8,0,0,0-.8.8.8.8,0,1,0,1.6,0A.8.8,0,0,0,45.3,41.1Zm3.2,0a.8.8,0,0,0,0,1.6.8.8,0,0,0,.8-.8C49.4,41.5,49,41.1,48.5,41.1Zm3.3,0a.8.8,0,0,0,0,1.6.8.8,0,0,0,.8-.8A.9.9,0,0,0,51.8,41.1Zm3.2,0a.8.8,0,0,0-.8.8.8.8,0,1,0,1.6,0A.8.8,0,0,0,55,41.1ZM19.5,44.3a.8.8,0,0,0-.8.8.7.7,0,0,0,.8.8.8.8,0,0,0,.8-.8A.9.9,0,0,0,19.5,44.3Zm-6.5.1A.8.8,0,0,0,13,46a.8.8,0,0,0,.9-.8A.9.9,0,0,0,13,44.4Zm3.2,0a.7.7,0,0,0-.8.8.8.8,0,0,0,.8.8.8.8,0,1,0,0-1.6Zm6.5,0a.7.7,0,0,0-.8.8.8.8,0,1,0,.8-.8Zm3.2,0a.8.8,0,1,0,0,1.6.8.8,0,0,0,0-1.6Zm3.3,0a.8.8,0,1,0,.8.8A.8.8,0,0,0,29.2,44.4Zm3.2,0a.7.7,0,0,0-.8.8.8.8,0,1,0,.8-.8Zm3.2,0a.7.7,0,0,0-.8.8.8.8,0,0,0,1.6,0A.7.7,0,0,0,35.6,44.4Zm3.2,0a.8.8,0,0,0,0,1.6.8.8,0,1,0,0-1.6Zm3.3,0a.7.7,0,0,0-.8.8.8.8,0,0,0,1.6,0A.7.7,0,0,0,42.1,44.4Zm3.2,0a.7.7,0,0,0-.8.8.8.8,0,0,0,1.6,0A.7.7,0,0,0,45.3,44.4Zm3.2,0a.8.8,0,0,0,0,1.6.8.8,0,1,0,0-1.6Zm3.3,0a.8.8,0,0,0,0,1.6.7.7,0,0,0,.8-.8A.8.8,0,0,0,51.8,44.4ZM19.5,47.5a.8.8,0,1,0,.8.8A.8.8,0,0,0,19.5,47.5Zm-9.7.1a.7.7,0,0,0-.8.8.8.8,0,0,0,.8.8.8.8,0,1,0,0-1.6Zm3.2,0a.8.8,0,1,0,0,1.6.9.9,0,0,0,.9-.8A1,1,0,0,0,13,47.6Zm3.2,0a.7.7,0,0,0-.8.8.8.8,0,1,0,.8-.8Zm6.5,0a.7.7,0,0,0-.8.8.8.8,0,0,0,.8.8.8.8,0,1,0,0-1.6Zm3.2,0a.8.8,0,1,0,.8.8A.8.8,0,0,0,25.9,47.6Zm3.3,0a.8.8,0,1,0,0,1.6.8.8,0,0,0,.8-.8A.9.9,0,0,0,29.2,47.6Zm3.2,0a.7.7,0,0,0-.8.8.8.8,0,0,0,.8.8.8.8,0,0,0,0-1.6Zm3.2,0a.7.7,0,0,0-.8.8.8.8,0,0,0,.8.8.9.9,0,0,0,.8-.8A.8.8,0,0,0,35.6,47.6Zm3.2,0a.8.8,0,1,0,.8.8A.8.8,0,0,0,38.8,47.6Zm3.3,0a.7.7,0,0,0-.8.8.8.8,0,0,0,.8.8.9.9,0,0,0,.8-.8A.8.8,0,0,0,42.1,47.6Zm3.2,0a.7.7,0,0,0-.8.8.8.8,0,0,0,.8.8.9.9,0,0,0,.8-.8A.8.8,0,0,0,45.3,47.6Zm9.7,0a.7.7,0,0,0-.8.8.8.8,0,0,0,.8.8.9.9,0,0,0,.8-.8A.8.8,0,0,0,55,47.6ZM13,50.8a.8.8,0,1,0,0,1.6.9.9,0,0,0,.9-.8A1,1,0,0,0,13,50.8Zm3.2,0a.7.7,0,0,0-.8.8.8.8,0,1,0,.8-.8Zm3.3,0a.8.8,0,0,0,0,1.6.8.8,0,0,0,.8-.8A.9.9,0,0,0,19.5,50.8Zm3.2,0a.8.8,0,0,0-.8.8.8.8,0,1,0,.8-.8Zm3.2,0a.8.8,0,1,0,0,1.6.8.8,0,0,0,0-1.6Zm3.3,0a.8.8,0,1,0,.8.8A.9.9,0,0,0,29.2,50.8Zm3.2,0a.8.8,0,0,0-.8.8.8.8,0,1,0,.8-.8Zm3.2,0a.8.8,0,0,0-.8.8.8.8,0,0,0,1.6,0A.8.8,0,0,0,35.6,50.8Zm3.2,0a.8.8,0,0,0,0,1.6.8.8,0,0,0,.8-.8C39.7,51.2,39.3,50.8,38.8,50.8Zm3.3,0a.8.8,0,0,0-.8.8.8.8,0,0,0,1.6,0A.8.8,0,0,0,42.1,50.8Zm3.2,0a.8.8,0,0,0-.8.8.8.8,0,1,0,1.6,0A.8.8,0,0,0,45.3,50.8Zm9.7,0a.8.8,0,0,0-.8.8.8.8,0,0,0,1.6,0A.8.8,0,0,0,55,50.8Zm3.3,0a.8.8,0,0,0-.8.8.9.9,0,0,0,.8.8.8.8,0,1,0,0-1.6ZM13,54a.8.8,0,1,0,0,1.6.9.9,0,0,0,.9-.8A1.1,1.1,0,0,0,13,54Zm3.2,0a.8.8,0,0,0-.8.8.9.9,0,0,0,.8.8.8.8,0,1,0,0-1.6Zm3.3,0a.8.8,0,1,0,.8.8A.9.9,0,0,0,19.5,54Zm3.2,0a.8.8,0,1,0,0,1.6.8.8,0,1,0,0-1.6Zm3.2,0a.9.9,0,0,0-.8.8.8.8,0,1,0,.8-.8Zm3.3,0a.8.8,0,0,0-.8.8.7.7,0,0,0,.8.8.8.8,0,0,0,.8-.8A.9.9,0,0,0,29.2,54Zm3.2,0a.8.8,0,0,0,0,1.6.8.8,0,0,0,0-1.6Zm3.2,0a.8.8,0,0,0,0,1.6.9.9,0,0,0,.8-.8A.8.8,0,0,0,35.6,54Zm3.2,0a.9.9,0,0,0-.8.8.8.8,0,1,0,1.6,0C39.7,54.4,39.3,54,38.8,54Zm3.3,0a.8.8,0,0,0,0,1.6.9.9,0,0,0,.8-.8A.8.8,0,0,0,42.1,54Zm3.2,0a.8.8,0,0,0,0,1.6.9.9,0,0,0,.8-.8A.8.8,0,0,0,45.3,54Zm3.2,0a.9.9,0,0,0-.8.8.8.8,0,1,0,1.6,0C49.4,54.4,49,54,48.5,54Zm3.3,0a.9.9,0,0,0-.8.8.8.8,0,1,0,1.6,0A.9.9,0,0,0,51.8,54ZM55,54a.8.8,0,0,0,0,1.6.9.9,0,0,0,.8-.8A.8.8,0,0,0,55,54Zm3.3,0a.8.8,0,0,0-.8.9.8.8,0,1,0,1.6,0C59,54.4,58.7,54,58.3,54ZM16.2,57.3a.8.8,0,0,0-.8.8.9.9,0,0,0,.8.8.8.8,0,0,0,0-1.6Zm3.3,0a.8.8,0,0,0-.8.8.7.7,0,0,0,.8.8.8.8,0,0,0,0-1.6Zm3.2,0a.8.8,0,0,0-.8.8.9.9,0,0,0,.8.8.8.8,0,0,0,0-1.6Zm3.2,0a.8.8,0,1,0,0,1.6.8.8,0,0,0,0-1.6Zm3.3,0a.8.8,0,0,0,0,1.6.7.7,0,0,0,.8-.8A.8.8,0,0,0,29.2,57.3Zm3.2,0a.8.8,0,0,0-.8.8.9.9,0,0,0,.8.8.8.8,0,1,0,0-1.6Zm3.2,0a.8.8,0,0,0-.8.8.9.9,0,0,0,.8.8.8.8,0,0,0,.8-.8A.7.7,0,0,0,35.6,57.3Zm3.2,0a.8.8,0,1,0,0,1.6.8.8,0,1,0,0-1.6Zm3.3,0a.8.8,0,0,0-.8.8.9.9,0,0,0,.8.8.8.8,0,0,0,.8-.8A.7.7,0,0,0,42.1,57.3Zm3.2,0a.8.8,0,0,0-.8.8.9.9,0,0,0,.8.8.8.8,0,0,0,.8-.8A.7.7,0,0,0,45.3,57.3Zm3.2,0a.8.8,0,0,0,0,1.6.8.8,0,1,0,0-1.6Zm3.3,0a.8.8,0,0,0,0,1.6.7.7,0,0,0,.8-.8A.8.8,0,0,0,51.8,57.3Zm3.2,0a.8.8,0,0,0-.8.8.9.9,0,0,0,.8.8.8.8,0,0,0,.8-.8A.7.7,0,0,0,55,57.3Zm3.3,0a.8.8,0,0,0-.8.8.9.9,0,0,0,.8.8.8.8,0,1,0,0-1.6ZM16.2,60.5a.8.8,0,0,0-.8.8.9.9,0,0,0,.8.8.8.8,0,1,0,0-1.6Zm3.3,0a.8.8,0,1,0,0,1.6.8.8,0,0,0,.8-.8A.9.9,0,0,0,19.5,60.5Zm3.2,0a.8.8,0,0,0-.8.8.9.9,0,0,0,.8.8.8.8,0,1,0,0-1.6Zm3.2,0a.8.8,0,0,0,0,1.6.8.8,0,1,0,0-1.6Zm3.3,0a.8.8,0,1,0,0,1.6.7.7,0,0,0,.8-.8A.8.8,0,0,0,29.2,60.5Zm3.2,0a.8.8,0,0,0-.8.8.9.9,0,0,0,.8.8.8.8,0,0,0,0-1.6Zm3.2,0a.8.8,0,0,0-.8.8.9.9,0,0,0,.8.8.8.8,0,0,0,.8-.8A.7.7,0,0,0,35.6,60.5Zm3.2,0a.8.8,0,0,0,0,1.6.8.8,0,0,0,0-1.6Zm3.3,0a.8.8,0,0,0-.8.8.9.9,0,0,0,.8.8.8.8,0,0,0,.8-.8A.7.7,0,0,0,42.1,60.5Zm3.2,0a.8.8,0,0,0-.8.8.9.9,0,0,0,.8.8.8.8,0,0,0,.8-.8A.7.7,0,0,0,45.3,60.5Zm3.2,0a.8.8,0,0,0,0,1.6.8.8,0,0,0,0-1.6Zm3.3,0a.8.8,0,0,0,0,1.6.7.7,0,0,0,.8-.8A.8.8,0,0,0,51.8,60.5Zm3.2,0a.8.8,0,0,0-.8.8.9.9,0,0,0,.8.8.8.8,0,0,0,.8-.8A.7.7,0,0,0,55,60.5Zm3.3,0a.7.7,0,0,0-.8.8.8.8,0,1,0,.8-.8Zm3.2,0a.8.8,0,0,0,0,1.6.7.7,0,0,0,.8-.8A.8.8,0,0,0,61.5,60.5Zm-42,3.2a.8.8,0,1,0,.8.8A.9.9,0,0,0,19.5,63.7Zm-3.3.1a.8.8,0,0,0-.8.8.9.9,0,0,0,.8.8.8.8,0,0,0,.8-.8A.7.7,0,0,0,16.2,63.8Zm6.5,0a.8.8,0,0,0-.8.8.8.8,0,1,0,1.6,0A.8.8,0,0,0,22.7,63.8Zm3.2,0a.8.8,0,1,0,0,1.6.8.8,0,0,0,.8-.8A.7.7,0,0,0,25.9,63.8Zm3.3,0a.8.8,0,1,0,.8.8A.8.8,0,0,0,29.2,63.8Zm3.2,0a.8.8,0,0,0-.8.8.8.8,0,0,0,1.6,0A.8.8,0,0,0,32.4,63.8Zm3.2,0a.8.8,0,0,0-.8.8.8.8,0,1,0,1.6,0A.7.7,0,0,0,35.6,63.8Zm3.2,0a.8.8,0,1,0,0,1.6.8.8,0,0,0,.8-.8C39.7,64.1,39.3,63.8,38.8,63.8Zm3.3,0a.8.8,0,0,0-.8.8.8.8,0,1,0,1.6,0A.7.7,0,0,0,42.1,63.8Zm3.2,0a.8.8,0,0,0-.8.8.8.8,0,0,0,1.6,0A.7.7,0,0,0,45.3,63.8Zm3.2,0a.8.8,0,1,0,0,1.6.8.8,0,0,0,.8-.8C49.4,64.1,49,63.8,48.5,63.8Zm3.3,0a.8.8,0,1,0,0,1.6.8.8,0,0,0,0-1.6Zm3.2,0a.8.8,0,0,0-.8.8.8.8,0,0,0,1.6,0A.7.7,0,0,0,55,63.8Zm3.3,0a.7.7,0,0,0-.8.8.8.8,0,0,0,1.6,0C59,64.1,58.7,63.8,58.3,63.8Zm3.2,0a.8.8,0,0,0-.8.8.9.9,0,0,0,.8.8.8.8,0,0,0,0-1.6Zm-42,3.1a.8.8,0,1,0,.8.8A.9.9,0,0,0,19.5,66.9Zm-3.3.1a.8.8,0,1,0,.8.8A.8.8,0,0,0,16.2,67Zm6.5,0a.8.8,0,0,0,0,1.6.8.8,0,1,0,0-1.6Zm3.2,0a.9.9,0,0,0-.8.8.8.8,0,1,0,.8-.8Zm3.3,0a.8.8,0,0,0-.8.8.7.7,0,0,0,.8.8.8.8,0,0,0,.8-.8A.9.9,0,0,0,29.2,67Zm3.2,0a.8.8,0,1,0,0,1.6.8.8,0,0,0,0-1.6Zm3.2,0a.8.8,0,1,0,0,1.6.9.9,0,0,0,.8-.8A.8.8,0,0,0,35.6,67Zm3.2,0a.9.9,0,0,0-.8.8.8.8,0,0,0,1.6,0C39.7,67.4,39.3,67,38.8,67Zm3.3,0a.8.8,0,1,0,0,1.6.9.9,0,0,0,.8-.8A.8.8,0,0,0,42.1,67Zm3.2,0a.8.8,0,0,0,0,1.6.9.9,0,0,0,.8-.8A.8.8,0,0,0,45.3,67Zm3.2,0a.9.9,0,0,0-.8.8.8.8,0,0,0,1.6,0C49.4,67.4,49,67,48.5,67Zm3.3,0a.9.9,0,0,0-.8.8.8.8,0,0,0,1.6,0A.9.9,0,0,0,51.8,67ZM55,67a.8.8,0,1,0,0,1.6.9.9,0,0,0,.8-.8A.8.8,0,0,0,55,67Zm3.3,0a.8.8,0,0,0-.8.8.8.8,0,0,0,1.6,0C59,67.3,58.7,67,58.3,67Zm3.2,0a.8.8,0,1,0,0,1.6.8.8,0,1,0,0-1.6Zm-42,3.2a.8.8,0,0,0,0,1.6.7.7,0,0,0,.8-.8A.8.8,0,0,0,19.5,70.2Zm3.2,0a.7.7,0,0,0-.8.8.8.8,0,1,0,.8-.8Zm3.2,0a.8.8,0,0,0,0,1.6.8.8,0,1,0,0-1.6Zm3.3,0a.8.8,0,1,0,.8.8A.8.8,0,0,0,29.2,70.2Zm3.2,0a.7.7,0,0,0-.8.8.8.8,0,1,0,.8-.8Zm3.2,0a.7.7,0,0,0-.8.8.8.8,0,0,0,1.6,0A.7.7,0,0,0,35.6,70.2Zm3.2,0a.8.8,0,0,0,0,1.6.8.8,0,0,0,0-1.6Zm3.3,0a.7.7,0,0,0-.8.8.8.8,0,0,0,1.6,0A.7.7,0,0,0,42.1,70.2Zm12.9,0a.7.7,0,0,0-.8.8.8.8,0,0,0,1.6,0A.7.7,0,0,0,55,70.2Zm3.3,0a.7.7,0,0,0-.8.8.8.8,0,1,0,.8-.8Zm3.2,0a.8.8,0,0,0,0,1.6.7.7,0,0,0,.8-.8A.8.8,0,0,0,61.5,70.2Zm-42,3.2a.8.8,0,0,0,0,1.6.8.8,0,0,0,.8-.8A.9.9,0,0,0,19.5,73.4Zm3.2,0a.7.7,0,0,0-.8.8.8.8,0,0,0,.8.8.8.8,0,1,0,0-1.6Zm3.2,0a.8.8,0,1,0,.8.8A.8.8,0,0,0,25.9,73.4Zm3.3,0a.8.8,0,0,0,0,1.6.8.8,0,0,0,.8-.8A.9.9,0,0,0,29.2,73.4Zm3.2,0a.7.7,0,0,0-.8.8.8.8,0,0,0,.8.8.8.8,0,0,0,0-1.6Zm3.2,0a.7.7,0,0,0-.8.8.8.8,0,0,0,.8.8.9.9,0,0,0,.8-.8A.8.8,0,0,0,35.6,73.4Zm3.2,0a.8.8,0,1,0,.8.8A.8.8,0,0,0,38.8,73.4Zm16.2,0a.7.7,0,0,0-.8.8.8.8,0,0,0,.8.8.9.9,0,0,0,.8-.8A.8.8,0,0,0,55,73.4Zm3.3,0a.8.8,0,0,0-.8.8.9.9,0,0,0,.8.8.8.8,0,1,0,0-1.6Zm3.2,0a.9.9,0,0,0-.8.8.8.8,0,0,0,.8.8.7.7,0,0,0,.8-.8A.8.8,0,0,0,61.5,73.4Zm-42,3.2a.8.8,0,0,0,0,1.6.8.8,0,0,0,.8-.8A.9.9,0,0,0,19.5,76.6Zm3.2,0a.8.8,0,0,0-.8.9.8.8,0,1,0,1.6,0A.9.9,0,0,0,22.7,76.6Zm3.2,0a.9.9,0,0,0-.8.9.9.9,0,0,0,.8.8.8.8,0,0,0,.8-.8A.8.8,0,0,0,25.9,76.6Zm25.9,0a.9.9,0,0,0-.8.9.9.9,0,0,0,.8.8.8.8,0,0,0,.8-.8A.9.9,0,0,0,51.8,76.6Zm3.2,0a.8.8,0,0,0-.8.9.8.8,0,0,0,1.6,0A.8.8,0,0,0,55,76.6Zm3.3,0a.8.8,0,0,0-.8.8.8.8,0,0,0,1.6,0C59,77,58.7,76.6,58.3,76.6Zm3.2,0a.8.8,0,0,0,0,1.6.8.8,0,0,0,.8-.8A.9.9,0,0,0,61.5,76.6Zm-9.7,3.3a.9.9,0,0,0-.8.8.8.8,0,0,0,1.6,0A.9.9,0,0,0,51.8,79.9Zm3.2,0a.8.8,0,1,0,0,1.6.9.9,0,0,0,.8-.8A.8.8,0,0,0,55,79.9Zm3.3,0a.8.8,0,0,0,0,1.6.9.9,0,0,0,.8-.8C59,80.2,58.7,79.9,58.3,79.9Zm3.2,0a.9.9,0,0,0-.8.8.8.8,0,1,0,.8-.8ZM55,83.1a.8.8,0,0,0-.8.8.9.9,0,0,0,.8.8.8.8,0,0,0,.8-.8A.7.7,0,0,0,55,83.1Zm3.3,0a.7.7,0,0,0-.8.8.8.8,0,1,0,.8-.8Zm3.2,0a.8.8,0,0,0,0,1.6.7.7,0,0,0,.8-.8A.8.8,0,0,0,61.5,83.1Zm3.2,0a.8.8,0,1,0,.8.8A.8.8,0,0,0,64.7,83.1Zm-6.4,3.2a.7.7,0,0,0-.8.8.8.8,0,0,0,.8.8.8.8,0,1,0,0-1.6Zm0,3.3a.8.8,0,0,0-.8.8.8.8,0,0,0,1.6,0C59,89.9,58.7,89.6,58.3,89.6Z" transform="translate(-2.5 -8.8)" style="fill:#fff;opacity:0.20000000298023224;isolation:isolate"/></svg>