<?xml version="1.0" encoding="utf-8"?>
<!-- Generator: Adobe Illustrator 23.0.1, SVG Export Plug-In . SVG Version: 6.00 Build 0)  -->
<svg version="1.1" id="Layer_1" xmlns="http://www.w3.org/2000/svg" xmlns:xlink="http://www.w3.org/1999/xlink" x="0px" y="0px"
	 viewBox="0 0 28 28" style="enable-background:new 0 0 28 28;" xml:space="preserve">
<style type="text/css">
	.st0{fill:#2C3E50;}
</style>
<title></title>
<g id="Call">
	<path class="st0" d="M24.5,28h-21c-0.9,0-1.8-0.3-2.5-1s-1-1.6-1-2.5v-21C0,2.6,0.3,1.7,1,1s1.6-1,2.5-1h21c0.9,0,1.8,0.3,2.5,1
		s1,1.6,1,2.5v21C28,26.4,26.4,28,24.5,28z M18.9,22.3c0.7,0,1.4-0.3,2-0.7c0.8-0.5,1.4-1.4,1.5-2.3c-0.1-0.6-0.5-1.2-1-1.5
		c-0.6-0.5-1.3-0.9-1.9-1.3c-0.4-0.4-0.9-0.6-1.4-0.6h-0.4c-0.3,0-0.6,0.3-1,1c-0.2,0.3-0.6,0.5-1,0.5c-0.3,0-0.5-0.1-0.8-0.2
		c-1.8-0.7-3.3-2.2-4.1-4c-0.2-0.3-0.3-0.6-0.3-0.9c0-0.2,0-0.3,0.1-0.4c0-0.2,0.2-0.4,0.7-0.7c0.2-0.2,0.5-0.4,0.7-0.6
		c0.2-0.3,0.3-0.6,0.3-0.9c-0.1-0.5-0.3-1-0.6-1.4c-1.2-1.9-2.2-2.8-3-2.8c-0.2,0-0.4,0-0.6,0.1C6.3,6.1,5.5,7,5.5,8.4
		c0,0.5,0.1,0.9,0.3,1.4c2.3,5.6,6.7,10.1,12.4,12.4C18.4,22.3,18.6,22.3,18.9,22.3z M21.7,14c0.3,0,0.4-0.1,0.4-0.2
		c0-0.1,0-0.2,0-0.3s0-0.1,0-0.2c0-0.1,0-0.2,0-0.3c0-1.3-0.3-2.6-1-3.7s-1.6-2.1-2.7-2.8c-1.1-0.7-2.4-1.2-3.8-1.2h-0.2h-0.3
		c-0.3,0-0.4,0.2-0.4,0.5c0,0.1,0,0.2,0.1,0.3s0.2,0.1,0.3,0.1c0.1,0,0.2,0,0.3,0.1c1.8,0.1,3.5,0.9,4.8,2.1c1.2,1.3,1.9,3,2,4.8
		v0.4c0,0.1,0,0.3,0,0.4C21.4,13.9,21.5,14,21.7,14z M19.7,13.2c0.2-0.1,0.4-0.3,0.3-0.5v-0.2c0-0.1,0-0.1,0-0.2
		c0-1.2-0.4-2.4-1.3-3.3s-2-1.6-3.3-1.8c-0.2,0-0.4-0.1-0.5-0.1h-0.3c-0.1,0-0.2,0.2-0.2,0.6s0.2,0.4,0.7,0.4c1.1,0.2,2.2,0.6,3,1.4
		c0.7,0.8,1.1,1.8,1.2,2.8v0.3c0,0.1,0,0.3,0.1,0.4C19.4,13.1,19.5,13.2,19.7,13.2L19.7,13.2z M17.7,12.5c0.2,0,0.3-0.1,0.4-0.2
		c0-0.1,0.1-0.3,0.1-0.4c0-0.7-0.3-1.3-0.8-1.7c-0.4-0.5-1-0.8-1.7-0.8h-0.4c-0.2,0-0.4,0.2-0.3,0.5c0,0.2,0.2,0.4,0.5,0.4
		c1,0,1.8,0.9,1.7,1.9C17.3,12.3,17.5,12.5,17.7,12.5L17.7,12.5z"/>
</g>
</svg>
