<?xml version="1.0" encoding="utf-8"?>
<!-- Generator: Adobe Illustrator 23.0.1, SVG Export Plug-In . SVG Version: 6.00 Build 0)  -->
<svg version="1.1" id="Layer_1" xmlns="http://www.w3.org/2000/svg" xmlns:xlink="http://www.w3.org/1999/xlink" x="0px" y="0px"
	 viewBox="0 0 28 28" style="enable-background:new 0 0 28 28;" xml:space="preserve">
<style type="text/css">
	.st0{fill:#2C3E50;}
</style>
<title></title>
<g id="Facebook">
	<path class="st0" d="M24.5,28h-21c-0.9,0-1.8-0.3-2.5-1s-1-1.6-1-2.5v-21C0,2.6,0.3,1.7,1,1s1.6-1,2.5-1h21c0.9,0,1.8,0.3,2.5,1
		s1,1.6,1,2.5v21C28,26.4,26.4,28,24.5,28z M15.4,23.2v-8.4h2.8l0.4-3.3h-3.2V9.7c0-0.3,0-0.7,0.1-1c0-0.1,0.1-0.2,0.1-0.3
		c0.2-0.4,0.8-0.6,1.6-0.6h1.5V4.9c-0.8-0.1-1.7-0.1-2.5-0.1c-1.5-0.1-2.9,0.6-3.6,1.9C12.2,7.4,12,8.3,12,9.1v2.5H9.2v3.3H12v8.4
		L15.4,23.2z"/>
</g>
</svg>
