<?xml version="1.0" encoding="utf-8"?>
<!-- Generator: Adobe Illustrator 23.0.1, SVG Export Plug-In . SVG Version: 6.00 Build 0)  -->
<svg version="1.1" id="Layer_1" xmlns="http://www.w3.org/2000/svg" xmlns:xlink="http://www.w3.org/1999/xlink" x="0px" y="0px"
	 viewBox="0 0 28 28" style="enable-background:new 0 0 28 28;" xml:space="preserve">
<style type="text/css">
	.st0{fill:#2C3E50;}
</style>
<title></title>
<g id="Instagram">
	<path class="st0" d="M24.5,28h-21c-0.9,0-1.8-0.3-2.5-1s-1-1.6-1-2.5v-21C0,2.6,0.3,1.7,1,1s1.6-1,2.5-1h21c0.9,0,1.8,0.3,2.5,1
		s1,1.6,1,2.5v21C28,26.4,26.4,28,24.5,28z M22.7,8.6c0-1.9-1.5-3.5-3.4-3.5c0,0,0,0-0.1,0H8.7c-1.9,0-3.5,1.5-3.5,3.5l0,0v10.5
		c0,1.9,1.5,3.5,3.4,3.5c0,0,0,0,0.1,0h10.6c1.9,0,3.5-1.5,3.5-3.4v-0.1V8.6H22.7z M14,9.5c-0.5,0-0.9,0.1-1.4,0.2
		c-0.4,0.2-0.9,0.4-1.2,0.6H7V9.4C7,8,8.1,6.8,9.5,6.8h0.1h8.8c0.7,0,1.4,0.3,1.9,0.8s0.8,1.2,0.8,1.9v0.9h-4.4
		c-0.4-0.3-0.8-0.5-1.2-0.6C14.9,9.5,14.5,9.5,14,9.5L14,9.5z M18.4,20.9H9.6c-0.7,0-1.4-0.3-1.9-0.8C7.3,19.6,7,18.9,7,18.2v-7h3.5
		c-0.3,0.4-0.5,0.8-0.6,1.2c-0.2,0.4-0.3,0.9-0.2,1.4c0,0.6,0.1,1.2,0.4,1.7c0.2,0.5,0.5,1,0.9,1.4s0.9,0.7,1.4,1
		c0.5,0.2,1.1,0.4,1.7,0.4c1.2,0,2.3-0.5,3.1-1.3c0.4-0.4,0.7-0.9,0.9-1.4c0.2-0.5,0.4-1.1,0.4-1.7c0-0.5-0.1-1-0.2-1.4
		c-0.2-0.4-0.4-0.8-0.6-1.2H21v7c0,0.7-0.3,1.4-0.8,1.9C19.7,20.6,19.1,20.9,18.4,20.9z M14,11.2c0.7,0,1.4,0.3,1.9,0.8
		c1,1,1,2.7,0,3.7l0,0c-0.5,0.5-1.2,0.8-1.9,0.8c-0.7,0-1.4-0.3-1.9-0.8c-1-1-1-2.7,0-3.7C12.6,11.5,13.3,11.2,14,11.2z M17.5,9.5
		h1.8V7.7h-1.7L17.5,9.5z"/>
</g>
</svg>
