<?xml version="1.0" encoding="utf-8"?>
<!-- Generator: Adobe Illustrator 23.0.1, SVG Export Plug-In . SVG Version: 6.00 Build 0)  -->
<svg version="1.1" id="Layer_1" xmlns="http://www.w3.org/2000/svg" xmlns:xlink="http://www.w3.org/1999/xlink" x="0px" y="0px"
	 viewBox="0 0 32 32" style="enable-background:new 0 0 32 32;" xml:space="preserve">
<style type="text/css">
	.st0{fill:#2C3E50;}
</style>
<title></title>
<g id="Linkedln">
	<path class="st0" d="M26.5,30h-21c-0.9,0-1.8-0.3-2.5-1c-0.7-0.7-1-1.6-1-2.5v-21C2,4.6,2.3,3.7,3,3c0.7-0.7,1.6-1,2.5-1h21
		c0.9,0,1.8,0.3,2.5,1c0.7,0.7,1,1.6,1,2.5v21C30,28.4,28.4,30,26.5,30z M9.1,11.4c0.6,0,1.2-0.2,1.6-0.6c0.4-0.4,0.6-0.9,0.6-1.4
		c0-0.5-0.2-1.1-0.6-1.4c-0.4-0.4-1-0.6-1.5-0.6C8.6,7.4,8,7.6,7.6,8C7.2,8.4,7,8.9,7,9.4c0,0.5,0.2,1,0.6,1.4
		C8,11.2,8.5,11.4,9.1,11.4z M11,13H7.2v11.5H11V13z M24.9,17.9c0.1-1.4-0.3-2.9-1.2-4c-0.8-0.8-2-1.3-3.1-1.3
		c-0.8-0.1-1.7,0.2-2.3,0.7c-0.4,0.4-0.8,0.8-1.1,1.3V13h-3.8v11.5H17v-7c0-0.1,0-0.3,0.1-0.4c0.2-0.4,0.4-0.7,0.7-1
		c0.4-0.3,0.8-0.5,1.3-0.4c0.6-0.1,1.2,0.2,1.5,0.8c0.3,0.6,0.5,1.2,0.4,1.9v6.1h3.9L24.9,17.9z M17,14.7C17,14.7,17,14.6,17,14.7
		C17,14.6,17.1,14.6,17,14.7L17,14.7L17,14.7z"/>
</g>
</svg>
