<?xml version="1.0" encoding="utf-8"?>
<!-- Generator: Adobe Illustrator 23.0.1, SVG Export Plug-In . SVG Version: 6.00 Build 0)  -->
<svg version="1.1" id="Layer_1" xmlns="http://www.w3.org/2000/svg" xmlns:xlink="http://www.w3.org/1999/xlink" x="0px" y="0px"
	 viewBox="0 0 32 32" style="enable-background:new 0 0 32 32;" xml:space="preserve">
<style type="text/css">
	.st0{fill:#2C3E50;}
	.st1{fill:#FFFFFF;}
</style>
<title></title>
<g id="Whatsapp">
	<path class="st0" d="M29,3c-0.7-0.7-1.6-1-2.5-1h-21C4.6,2,3.7,2.3,3,3C2.3,3.7,2,4.6,2,5.5v21c0,0.9,0.3,1.8,1,2.5
		c0.7,0.7,1.6,1,2.5,1h21c1.9,0,3.5-1.6,3.5-3.5v-21C30,4.6,29.7,3.7,29,3z"/>
	<path class="st1" d="M27.8,16.1c-0.3,3.7-2.4,7-5.6,8.9c-1.7,1-3.7,1.6-5.6,1.6h-0.3c-1.9,0-3.8-0.5-5.5-1.4l-3.2,1
		c-1.3,0.4-2.3,0.8-3.1,1c0,0-0.1,0-0.1-0.1l-0.1,0.1c0,0,0.6-1.8,1.9-5.3c0.1-0.2,0.1-0.5,0.1-0.7c0-0.2-0.1-0.4-0.2-0.6
		c-0.8-1.6-1.3-3.4-1.3-5.3C4.8,12.4,5.9,9.6,8,7.6c2-2,4.7-3.2,7.5-3.4h1.4c2.8,0.2,5.4,1.3,7.4,3.2c2,1.9,3.2,4.5,3.4,7.2V16.1z
		 M25.5,18c0.3-0.9,0.4-1.9,0.5-2.8c0-2.2-0.9-4.3-2.4-5.9c-1.8-2.2-4.6-3.4-7.4-3.3h-0.8c-1.7,0.1-3.4,0.7-4.8,1.7
		c-2.6,1.6-4.1,4.5-4.1,7.5c0,0.4,0,0.7,0.1,1.1c0.1,1.3,0.5,2.5,1.2,3.6c0.4,0.7,0.6,1,0.6,1L8,21.8c-0.5,1.5-0.8,2.4-0.9,2.5
		l3.7-1.2c1.3,0.8,2.7,1.3,4.2,1.5c0.4,0,0.7,0.1,1.1,0.1c1.4,0,2.7-0.2,4-0.8C22.7,22.9,24.7,20.7,25.5,18z M22,17.9
		c0,0.1,0,0.2,0,0.3c0,0.9-0.5,1.7-1.3,2c-0.5,0.2-1,0.3-1.5,0.4H19c-1-0.2-2-0.5-3-1c-1.6-0.8-3-2.1-4-3.6c-0.8-0.9-1.2-2-1.4-3.2
		c0-1.5,0.5-2.3,1.5-2.6c0.2,0,0.4-0.1,0.6-0.1c0.2,0,0.4,0,0.5,0.1c0.3,0.4,0.5,0.8,0.7,1.3c0.2,0.5,0.4,0.9,0.5,1.4
		c0,0.3-0.2,0.6-0.4,0.8c-0.2,0.2-0.4,0.4-0.5,0.7c0.2,0.5,0.4,0.9,0.8,1.2c0.6,0.7,1.3,1.3,2.1,1.8c0.4,0.3,0.9,0.5,1.4,0.6l0,0
		c0.1,0,0.4-0.2,0.8-0.7s0.6-0.7,0.7-0.7l0,0c0.5,0.1,1,0.3,1.5,0.6C21.2,17.4,21.6,17.7,22,17.9z"/>
</g>
</svg>
